<svg version="1.2" xmlns="http://www.w3.org/2000/svg" viewBox="0 0 460 190" width="460" height="190">
	<title>Novo Projeto</title>
	<style>
		.s0 { fill: #000000 } 
	</style>
	<path id="GG!" class="s0" aria-label="GG!"  d="m49.2 13.4h93.7q5.9 0 13.7 13.4 11.6 14 11.6 18.4v0.5q0 4.7-5.1 19.3-5 6.4-6.9 6.4v0.5q3 3.5 3 7.7-15 59.7-17.6 64-5.3 6.6-30.1 25-7.1 6.4-12 6.4h-48.1q-6.2 0-13.8-12.9-11.6-14.6-11.6-18.5v-2.5l22.8-86q-15.1-20.3-15.1-22.8v-1.7q0-11.9 15.5-17.2zm-9.9 15.5v1.3q0 2.3 15.5 22.8l-23.6 88.5q0 2.6 12.4 18.9 6.1 9.4 9.5 9.4h46.4q4.6 0 15.9-10.3 17.9-13 22.3-18.4l15.9-59.8v-1.3q0-4.7-6.4-5.5h-32.7q-10.1 0-12.9 12l-5.1 21.5q0 6.4 9 6.4-4.1 15.9-5.2 15.9h-25.7l-0.9-0.8 19.3-71.4h26.7l0.4 0.5h0.4l-0.8 5.1q0 4.7 6.4 5.6h21.5q11.4 0 13.8-15.9l1.2-6.4q0-3.2-9.4-15.1-8.9-13.3-11.6-13.3h-91.5q-10.8 2.4-10.8 10.3zm7.3-2.1l1.3-1.3h89.8q4 3.9 17.6 23.6v0.4q-2.6 12.5-3.8 12.5h-23.2q-1.1 0-1.3-1.7l2.6-9.5h-41.7l-23.2 86.8h40.8q1.2 0 8.6-30.5h-9q-1.1 0-1.3-1.7 5.2-21.9 6.8-23.6h34.9q0.8 0 0.8 1.2-14.6 55.9-15.9 57.6l-28.8 22.4h-45.5l-17.2-23.2 23.6-90.3v-0.4l-15.9-21.5zm89.8 1.7h-85v0.5l14.6 20.6-0.9 3.9 1.3-0.9h2.1l0.9 0.9q0 3.4-3.4 3.4h-0.5q-0.8 0-0.8-1.3h-0.5l-2.1 9 3.4-0.8 0.9 1.3v1.2q0 3.1-3 3.1h-0.4l-1.8-1.3h-0.4l-1.7 7.7 3-0.4q1.7 0.8 1.7 2.1 0 3.5-4.7 4.3l-1.7-0.8-1.8 6.8 3.1-0.8q1.9 0.8 2.1 1.7v0.9q0 2.5-2.6 4.2h-0.8q-1.4 0-3-1.2l-1.8 6.4h0.9l1.7-0.4q2.2 0.5 2.2 1.3v3q-1 2.3-4.8 3.4l-1.7-0.4-1.3 4.7h2.2q3 0 3 3-1.7 4.7-6 4.7l-1.3-0.4-1.3 4.3 2.1-0.4q3.1 0.5 3.1 3.8l-0.5 2.6h2.2l2.1 0.5v-3.5l0.4-0.4v-0.4q-5.1 0-5.1-3.1 0-4.6 6-5.1 1.8 0.5 2.6 2.1v1.3l-0.9 2.6h0.5l1.7-0.4 2.1 0.8q0-3.1 1.7-5.1l-3.8 0.8q-2-0.8-2.2-1.7v-1.3q0-4.3 5.2-4.7h1.7l1.3 1.3v1.7q0 1.4-1.3 3h0.4q2.1 0 2.6-4.3-2.1-0.5-2.1-3.4 0-2.5 4.3-4.7l1.2-4.3q-1.7 0-1.7-1.3v-1.7q0-2.3 3.9-4.8l1.3-4.7q-1.3 0-1.3-0.9v-2.5q0.3-1.2 3-3l1.3-6.1-0.9-0.8v-0.9q0-2.1 3-4.3l1.3-6-0.8-0.8v-0.5q0-1.2 2.5-4.7l1.8-6-0.5-1.7q0-2.6 3-2.6 0.9 0 0.9 1.3h8.2q1.6-1.3 3-1.3l1.3 1.3h7.7l2.1-1.3 2.2 1.3h6.4l3.5-1.3 2.1 1.3h6.9l0.4 0.4h0.5q0-1.7 2.5-1.7l0.9 0.8v1.8q0 1.2-3 1.2l-2.2 7.8 2.6 0.8h6.9l3.4-0.8h0.5l1.3 0.8h4.3l0.4-2.1q-2.2 0-2.2-1.3 0-2.7 3.5-3.4l0.8-2.6zm-76 2.1l0.8-0.8h0.5l0.8 0.8-0.8 0.9h-1.3zm12 0l0.9-0.9h0.4l0.9 0.9-1.3 0.9h-0.9zm12 0l0.9-0.9 0.9 0.9-0.9 0.8h-0.9zm12.1 0l0.8-0.8 0.9 0.8-1.3 1.3-0.4-0.4zm11.6 0l0.8-0.9h0.5l0.8 0.9-1.3 1.3-0.8-0.9zm12 0l0.9-0.9h0.4l0.8 0.9-0.8 0.9h-1.3zm12 0l0.9-0.9 0.9 0.9-0.9 0.8h-0.9zm-67.9 6l1.3-1.2h0.9l0.8 0.8v0.4l-1.2 1.3h-0.9l-0.9-0.8zm12.1 0l1.3-1.3h0.8l0.9 0.8q-0.7 1.8-1.3 1.8h-0.9l-0.8-0.9zm12 0l1.3-1.3h0.4l0.9 0.9v0.8l-0.9 0.9h-0.8l-0.9-0.9zm12 0l1.3-1.3h0.5l0.8 0.9v0.4l-1.3 1.3h-1.3zm11.6 0.4l1.3-1.7h0.9l0.8 0.9v0.4l-1.2 1.3h-0.9zm12-0.4l1.3-1.3h0.9l0.8 0.8-1.3 1.8h-0.8l-0.9-0.9zm12.1 0l1.2-1.3h0.9l0.9 0.9q-0.7 1.7-1.3 1.7h-0.9l-0.8-0.9zm-64.9 4.3q0.8 0 0.8 1.3-0.8 2-1.7 2.2h-0.8l-0.9-0.9v-1.3q0.4-1.3 2.6-1.3zm12 0q0.9 0 0.9 1.3-0.7 2.2-3 2.2-0.9 0-0.9-1.3 0.6-2.2 3-2.2zm12 0l0.5 0.5v1.7q-0.5 1.3-2.6 1.3l-0.9-0.9v-0.8q0.8-1.8 3-1.8zm9.1 1.8l1.7-1.8h0.8l0.9 0.9v0.9l-1.7 1.7h-0.9l-0.8-0.9zm12 0l1.7-1.7h0.9l0.8 0.9v0.8l-1.7 1.7h-0.8l-0.9-0.8zm14.6-1.7q0.9 0 0.9 1.2-0.9 2-1.8 2.2h-0.8l-1.3-1.3q0.6-2.1 3-2.1zm12 0l0.9 0.8q0 2.6-3 2.6-0.9 0-0.9-1.3 0.7-2.1 3-2.1zm-70.4 7.7l2.1-2.2h0.9l1.3 1.3q-0.9 2.6-1.8 2.6h-1.7l-0.8-0.9zm74.7-2.1l0.9 0.9v0.4q0 2.2-1.3 2.6h-1.7l-0.9-0.9v-1.3q0.8-1.7 3-1.7zm-68.7 6h1.7l1.3 1.3q0 2.6-3.4 3h-0.5q-1.1 0-1.3-1.7 0.7-1.8 2.2-2.6zm57.6 2.2l2.1-2.2h1.7l0.9 0.9v1.3l-2.2 2.1h-1.3l-1.2-1.3zm-64.1 3.5h0.9q1.3 0 1.3 1.7-1.6 3.4-4.3 3.4l-1.3-1.3v-1.7q1.1-2.1 3.4-2.1zm42.1 5.1h-17.1l-16.8 61.9h17.2l1.3-6.5h-0.5q-7.3-2.6-7.3-8.5v-0.9q7.2-34 11.2-34 5.2-6 13.3-6-1.3-2.2-1.3-6zm-37.3 0.4l1.7 1.3v2.2l-2.2 2.1h-1.3l-2.1-2.1v-1.3q0-1.2 3.9-2.2zm-9.1 6.1h2.2l1.3 1.3v0.8q0 3-3 3h-1.8q-1.7-0.8-1.7-2.1 0-1.2 3-3zm6.5 5.5l1.3 1.3v1.3q0 3.2-4.3 3.9-1.2 0-2.2-2.2 0-3.8 5.2-4.3zm-8.6 6.1h1.3l1.3 1.3v0.8q-0.6 3.9-3.9 3.9h-1.7l-0.9-0.9v-2.6q1.5-2.5 3.9-2.5zm46 6.8l-1.3 4.8q2.1 0.1 2.1 1.3v1.7q-0.9 4.3-4.3 4.3l-0.8 3.8h2.1q0-5.5 5.6-5.5 2.2 0.5 2.2 1.2v1.3l-0.5 3q4.7 0.5 4.7 1.8v1.7q0 3.8-5.5 5.1l-0.5 3.5h0.5l2.1 0.4q0-6 4.3-6h2.6l1.3 1.3v1.7q0 1.5-1.7 3.4h0.4l3.4-0.8q2.6 0.8 2.6 3.4l-0.9 2.6h0.5l1.7-0.4 0.4 0.4 0.9-3.9h-0.4q-2.6 0-2.6-1.3v-2.1q0-2.9 3.4-4.7h2.2l0.8-3.9h-0.4q-1.7 0-2.6-1.7v-1.8q0-3.4 5.2-4.7l1.3-4.3q-2.6 0-2.6-1.3v-1.7q0-3.5 4.3-3.9l0.8-2.1h-3.4q0 2-3.4 2.6h-1.8q-1.2 0-1.2-2.6h-4.8q-2.6 2.6-4.3 2.6h-1.3q-1.7-0.8-1.7-2.6h-4.7zm-40.8-1.3q2.1 0.7 2.1 2.6-0.5 4.3-3.8 4.3-1.8 0-3.5-2.6v-0.4q0.6-3.9 5.2-3.9zm47.7 0q1.9 0.9 2.1 1.7 0 5.2-3.9 5.2-2.7 0-3.4-3.9 0-2 5.2-3zm12 0q1.2 0 2.1 2.2-0.4 4.7-3.8 4.7h-0.9q-2.6-1.1-2.6-3.5 0-2.5 5.2-3.4zm-67.5 6q2.2 0.7 2.2 2.6-0.8 4.3-3.9 4.3h-0.4q-3.4 0-3.4-3.4 0-2.9 5.5-3.5zm59.8 0q2.1 0.7 2.1 3-1.1 3.9-3.9 3.9h-0.4q-3.4 0-3.4-3.4v-0.5q1.6-3 5.6-3zm10.7 0h1.3l1.7 1.7v1.3q0 2.4-2.6 3.9h-1.3q-3.4 0-3.4-3.4 0-2.7 4.3-3.5zm-66.2 5.6q2 0.9 2.2 1.7v1.3q0 3.6-5.2 4.7-2.6 0-2.6-3 0-3.6 5.6-4.7zm59.8 0q1.9 0.9 2.1 1.7v1.3q0 3.6-5.1 4.7-2.6 0-2.6-3 0-3.9 5.6-4.7zm-67.5 6h0.9l1.7 1.7v0.9q-0.9 4.7-4.7 4.7h-2.2l-1.3-1.3v-1.2q0-4.8 5.6-4.8zm70.9 0h0.4q2.4 0 3 1.7-0.4 5.6-5.5 5.6h-1.3q-0.9-0.2-1.8-2.1 1.2-5.2 5.2-5.2zm-9.5 13.8l-2.1-0.5q0 2.8-1.3 4.3h0.4l2.2-0.4q2.7 0 3.4 3.9l-1.3 2.6 4.8 0.4v-1.7l0.8-3-0.4 0.4h-3l-2.2-2.2v-1.2l0.9-3.1h-0.4zm-56.8 5.6h-0.8l0.4 1.3-1.3 3h0.5q1.7-0.2 1.7-3.8zm51.1 0.4h-2.6l-0.8 3.4h0.4l2.6 0.9zm-59.3 5.6q0 2.7-0.9 3.8h3.9l0.4-3q-2.1 0-3.4-0.8zm59.7 0l-0.9 3.8h3.1q0.7 0 1.2-3-2.1 0-3.4-0.8zm-67.9 0.4h-3.8l-0.9 3.9 0.4-0.5h3.5q0-2.1 0.8-3.4zm82.5 0h-2.6l-0.8 3.4h2.6zm-78.2 6.1h-3.5l-0.8 3.4 2.1-0.4h1.3zm9 0l-0.8 0.8v2.2h0.8l0.4-3zm47.7 3h2.2l0.9-3h-1.8q-0.9 0-1.3 3zm15.1-3h-3.9v2.1l-0.4 0.4v0.5l3.4 0.4q0-2.1 0.9-3.4zm-70.1 6h-0.4l-0.8 3 0.4-0.4h1.3l0.4 0.4h0.4l0.9-3-0.4 0.4h-1.3zm14.2 0.4l-2.6-0.4-0.9 3 1.3-0.4 1.3 0.4v-0.4zm11.2 0l-1.8-0.4-0.8 3 1.3-0.5 1.3 0.5v-1.3l0.4-1.3zm12.5 0l-2.6-0.4-0.9 3h0.4l1.3-0.5 1.3 0.5v-0.5zm12.1 0l-2.6-0.4-0.9 3h0.5l1.7-0.4 0.4 0.4zm12 0l-2.5-0.4-0.9 3 1.3-0.4 1.3 0.4v-0.4zm-55.9 6h-2.1l-0.5 2.1h2.2zm12 0h-2.1l-0.5 2.2h2.2zm12 0h-2.1l-0.5 2.1h2.2zm12 0h-2.6l-0.4 2.2h1.7q0.8 0 1.3-2.2zm11.6 0h-2.1l-0.5 2.2h2.2zm-43.8 6h-1.3l-0.5 1.7h1.8zm12 0h-1.3l-0.4 1.7h0.8l0.9-0.8zm11.2 0l-0.9 0.8v0.9h0.9l0.8-0.9v-0.8zm12.1 0l-0.9 0.8v0.9h1.3l0.4-1.7zm92.4-141.4h93.7q5.9 0 13.7 13.3 11.6 14.1 11.6 18.5v0.4q0 4.8-5.1 19.4-5 6.4-6.9 6.4v0.4q3 3.6 3 7.8-15 59.7-17.6 64-5.3 6.5-30.1 24.9-7.1 6.5-12 6.5h-48.2q-6.1 0-13.7-12.9-11.6-14.6-11.6-18.5v-2.6l22.8-85.9q-15.1-20.3-15.1-22.8v-1.7q0-11.9 15.5-17.2zm-9.9 15.5v1.3q0 2.2 15.5 22.7l-23.7 88.5q0 2.6 12.5 19 6.1 9.4 9.5 9.4h46.4q4.6 0 15.9-10.3 17.9-13 22.3-18.5l15.9-59.7v-1.3q0-4.7-6.4-5.6h-32.7q-10.1 0-12.9 12l-5.1 21.5q0 6.5 9 6.5-4.1 15.9-5.2 15.9h-25.8l-0.8-0.9 19.3-71.3h26.7l0.4 0.4h0.4l-0.8 5.2q0 4.7 6.4 5.6h21.5q11.4 0 13.7-15.9l1.3-6.5q0-3.1-9.4-15-8.9-13.3-11.6-13.3h-91.5q-10.8 2.3-10.8 10.3zm7.3-2.2l1.3-1.3h89.8q4 4 17.6 23.7v0.4q-2.7 12.5-3.8 12.5h-23.2q-1.1 0-1.3-1.8l2.5-9.4h-41.6l-23.2 86.8h40.8q1.2 0 8.6-30.5h-9q-1.1 0-1.3-1.7 5.2-22 6.8-23.7h34.8q0.9 0 0.9 1.3-14.6 55.9-15.9 57.6l-28.8 22.3h-45.5l-17.2-23.2 23.6-90.2v-0.4l-15.9-21.5zm89.8 1.7h-85.1v0.4l14.7 20.7-0.9 3.8 1.3-0.8h2.1l0.9 0.8q0 3.5-3.4 3.5h-0.5q-0.8 0-0.8-1.3h-0.5l-2.1 9 3.4-0.9 0.9 1.3v1.3q0 3-3 3h-0.5l-1.7-1.3h-0.4l-1.7 7.8 3-0.5q1.7 0.9 1.7 2.2 0 3.4-4.7 4.3l-1.7-0.9-1.8 6.9 3-0.9q2 0.9 2.2 1.8v0.8q0 2.6-2.6 4.3h-0.8q-1.4 0-3-1.3l-1.8 6.5h0.9l1.7-0.5q2.2 0.6 2.2 1.3v3q-1 2.4-4.8 3.5l-1.7-0.5-1.3 4.8h2.2q3 0 3 3-1.7 4.7-6 4.7l-1.3-0.4-1.3 4.3 2.1-0.5q3 0.6 3 3.9l-0.4 2.6h2.2l2.1 0.4v-3.4l0.4-0.4v-0.5q-5.1 0-5.1-3 0-4.6 6-5.1 1.8 0.5 2.6 2.1v1.3l-0.9 2.6h0.4l1.8-0.5 2.1 0.9q0-3.1 1.7-5.2l-3.8 0.9q-2-0.9-2.2-1.7v-1.3q0-4.3 5.2-4.7h1.7l1.3 1.3v1.7q0 1.4-1.3 3h0.4q2.1 0 2.6-4.3-2.1-0.5-2.1-3.4 0-2.5 4.3-4.8l1.2-4.3q-1.7 0-1.7-1.3v-1.7q0-2.2 3.9-4.7l1.3-4.7q-1.3 0-1.3-0.9v-2.6q0.3-1.2 3-3l1.3-6-0.9-0.9v-0.8q0-2.2 3-4.3l1.3-6-0.8-0.9v-0.4q0-1.2 2.5-4.7l1.8-6.1-0.5-1.7q0-2.6 3-2.6 0.9 0 0.9 1.3h8.2q1.6-1.3 3-1.3l1.3 1.3h7.7l2.1-1.3 2.2 1.3h6.4l3.5-1.3 2.1 1.3h6.9l0.4 0.5h0.5q0-1.8 2.5-1.8l0.9 0.9v1.7q0 1.3-3 1.3l-2.2 7.7 2.6 0.9h6.9l3.4-0.9h0.5l1.2 0.9h4.3l0.5-2.1q-2.2 0-2.2-1.3 0-2.7 3.5-3.5l0.8-2.5zm-76 2.1l0.8-0.9h0.5l0.8 0.9-0.8 0.9h-1.3zm12 0l0.9-0.9h0.4l0.8 0.9-1.2 0.8h-0.9zm12 0l0.9-0.8 0.8 0.8-0.8 0.9h-0.9zm12.1 0l0.8-0.9 0.9 0.9-1.3 1.3-0.4-0.5zm11.6 0l0.8-0.8h0.5l0.8 0.8-1.3 1.3-0.8-0.8zm12 0l0.9-0.9h0.4l0.8 0.9-0.8 0.8h-1.3zm12 0l0.9-0.8 0.8 0.8-0.8 0.9h-0.9zm-67.9 6l1.3-1.3h0.9l0.8 0.9v0.4l-1.2 1.3h-0.9l-0.9-0.9zm12.1 0l1.3-1.3h0.8l0.9 0.9q-0.7 1.7-1.3 1.7h-0.9l-0.8-0.8zm12 0l1.3-1.3h0.4l0.9 0.8v0.9l-0.9 0.9h-0.8l-0.9-0.9zm12 0l1.3-1.3h0.4l0.9 0.9v0.4l-1.3 1.3h-1.3zm11.6 0.4l1.3-1.7h0.9l0.8 0.9v0.4l-1.3 1.3h-0.8zm12-0.5l1.3-1.2h0.9l0.8 0.8-1.3 1.7h-0.8l-0.9-0.8zm12.1 0l1.2-1.3h0.9l0.9 0.8q-0.7 1.8-1.3 1.8h-0.9l-0.8-0.9zm-64.9 4.3q0.8 0 0.8 1.3-0.8 1.9-1.7 2.1h-0.9l-0.8-0.8v-1.3q0.4-1.3 2.6-1.3zm12 0q0.9 0 0.9 1.3-0.7 2.1-3 2.1-0.9 0-0.9-1.3 0.6-2.1 3-2.1zm12 0l0.5 0.4v1.7q-0.5 1.3-2.6 1.3l-0.9-0.8v-0.9q0.8-1.7 3-1.7zm9.1 1.7l1.7-1.7h0.8l0.9 0.9v0.8l-1.7 1.7h-0.9l-0.8-0.8zm12 0l1.7-1.7h0.9l0.8 0.8v0.9l-1.7 1.7h-0.9l-0.8-0.9zm14.6-1.7q0.9 0 0.9 1.3-0.9 1.9-1.8 2.2h-0.8l-1.3-1.3q0.6-2.2 3-2.2zm12 0l0.9 0.9q0 2.6-3 2.6-0.9 0-0.9-1.3 0.7-2.2 3-2.2zm-70.4 7.8l2.1-2.2h0.9l1.3 1.3q-0.9 2.6-1.8 2.6h-1.7l-0.8-0.9zm74.7-2.1l0.9 0.8v0.5q0 2.2-1.3 2.5h-1.7l-0.9-0.8v-1.3q0.8-1.7 3-1.7zm-68.7 6h1.7l1.3 1.3q0 2.5-3.5 3h-0.4q-1.1 0-1.3-1.7 0.7-1.9 2.2-2.6zm57.6 2.1l2.1-2.1h1.7l0.9 0.8v1.3l-2.2 2.2h-1.3l-1.2-1.3zm-64.1 3.4h0.9q1.3 0 1.3 1.7-1.6 3.5-4.3 3.5l-1.3-1.3v-1.7q1.1-2.2 3.4-2.2zm42.1 5.2h-17.2l-16.7 61.9h17.2l1.3-6.5h-0.5q-7.3-2.7-7.3-8.6v-0.8q7.2-34 11.2-34 5.2-6 13.3-6-1.3-2.3-1.3-6zm-37.3 0.4l1.7 1.3v2.1l-2.2 2.2h-1.3l-2.1-2.2v-1.2q0-1.2 3.9-2.2zm-9.1 6h2.2l1.3 1.3v0.9q0 3-3 3h-1.8q-1.7-0.9-1.7-2.2 0-1.1 3-3zm6.5 5.6l1.3 1.3v1.3q0 3.2-4.3 3.9-1.2 0-2.2-2.2 0-3.9 5.2-4.3zm-8.6 6h1.3l1.3 1.3v0.9q-0.6 3.8-3.9 3.8h-1.7l-0.9-0.8v-2.6q1.5-2.6 3.9-2.6zm46 6.9l-1.3 4.7q2.1 0.1 2.1 1.3v1.7q-0.9 4.3-4.3 4.3l-0.8 3.9h2.1q0-5.6 5.6-5.6 2.1 0.6 2.1 1.3v1.3l-0.4 3q4.7 0.4 4.7 1.7v1.7q0 3.9-5.5 5.2l-0.5 3.4h0.5l2.1 0.5q0-6.1 4.3-6.1h2.6l1.3 1.3v1.8q0 1.5-1.8 3.4h0.5l3.4-0.9q2.6 0.9 2.6 3.5l-0.9 2.5h0.5l1.7-0.4 0.4 0.4 0.9-3.8h-0.5q-2.5 0-2.5-1.3v-2.2q0-2.9 3.4-4.7h2.2l0.8-3.9h-0.4q-1.7 0-2.6-1.7v-1.7q0-3.4 5.2-4.7l1.2-4.3q-2.5 0-2.5-1.3v-1.7q0-3.6 4.3-3.9l0.8-2.1h-3.4q0 2-3.4 2.5h-1.8q-1.3 0-1.3-2.5h-4.7q-2.6 2.5-4.3 2.5h-1.3q-1.7-0.7-1.7-2.5h-4.7zm-40.8-1.3q2.1 0.6 2.1 2.6-0.5 4.3-3.9 4.3-1.7 0-3.4-2.6v-0.5q0.5-3.8 5.2-3.8zm47.7 0q1.9 0.8 2.1 1.7 0 5.2-3.9 5.2-2.8 0-3.4-3.9 0-2.1 5.2-3zm12 0q1.2 0 2.1 2.1-0.4 4.8-3.8 4.8h-0.9q-2.6-1.1-2.6-3.5 0-2.6 5.2-3.4zm-67.5 6q2.2 0.6 2.2 2.6-0.8 4.3-3.9 4.3h-0.4q-3.5 0-3.5-3.5 0-2.9 5.6-3.4zm59.8 0q2.1 0.6 2.1 3-1.1 3.9-3.9 3.9h-0.4q-3.4 0-3.4-3.5v-0.4q1.6-3 5.6-3zm10.7 0h1.3l1.7 1.7v1.3q0 2.4-2.6 3.9h-1.3q-3.4 0-3.4-3.5 0-2.7 4.3-3.4zm-66.2 5.6q2 0.8 2.2 1.7v1.3q0 3.5-5.2 4.7-2.6 0-2.6-3 0-3.6 5.6-4.7zm59.8 0q1.9 0.8 2.1 1.7v1.3q0 3.5-5.2 4.7-2.5 0-2.5-3 0-4 5.6-4.7zm-67.5 6h0.9l1.7 1.7v0.9q-0.9 4.7-4.8 4.7h-2.1l-1.3-1.3v-1.3q0-4.7 5.6-4.7zm70.9 0h0.4q2.4 0 3 1.7-0.4 5.6-5.6 5.6h-1.2q-0.9-0.2-1.8-2.2 1.2-5.1 5.2-5.1zm-9.5 13.7l-2.1-0.4q0 2.8-1.3 4.3h0.4l2.2-0.4q2.7 0 3.4 3.8l-1.3 2.6 4.8 0.5v-1.8l0.8-3-0.4 0.5h-3l-2.2-2.2v-1.3l0.9-3h-0.4zm-56.8 5.6h-0.8l0.4 1.3-1.3 3h0.4q1.8-0.2 1.8-3.9zm51.1 0.5h-2.6l-0.8 3.4h0.4l2.6 0.9zm-59.3 5.5q0 2.7-0.9 3.9h3.9l0.4-3q-2.1 0-3.4-0.9zm59.7 0l-0.9 3.9h3q0.8 0 1.3-3-2.1 0-3.4-0.9zm-67.9 0.5h-3.9l-0.8 3.8 0.4-0.4h3.5q0-2.1 0.8-3.4zm82.5 0h-2.6l-0.8 3.4h2.6zm-78.3 6h-3.4l-0.8 3.5 2.1-0.5h1.3zm9 0l-0.8 0.9v2.1h0.8l0.4-3zm47.7 3h2.2l0.8-3h-1.7q-0.9 0-1.3 3zm15.1-3h-3.9v2.2l-0.4 0.4v0.4l3.4 0.5q0-2.2 0.9-3.5zm-70.1 6h-0.4l-0.9 3.1 0.5-0.5h1.3l0.4 0.5h0.4l0.9-3.1-0.4 0.5h-1.3zm14.1 0.4l-2.5-0.4-0.9 3 1.3-0.4 1.3 0.4v-0.4zm11.2 0l-1.8-0.5-0.8 3 1.3-0.4 1.3 0.4v-1.3l0.4-1.2zm12.4 0l-2.5-0.5-0.9 3h0.4l1.3-0.4 1.3 0.4v-0.4zm12.1 0l-2.6-0.4-0.9 3h0.4l1.8-0.4 0.4 0.4zm12 0l-2.6-0.4-0.8 3 1.3-0.5 1.3 0.5v-0.5zm-55.9 6h-2.1l-0.5 2.2h2.2zm12 0h-2.1l-0.5 2.1h2.2zm12 0h-2.1l-0.5 2.2h2.2zm12 0h-2.6l-0.4 2.1h1.7q0.8 0 1.3-2.1zm11.6 0h-2.1l-0.5 2.1h2.2zm-43.8 6.1h-1.3l-0.5 1.7h1.8zm12 0h-1.3l-0.4 1.7h0.8l0.9-0.9zm11.2 0l-0.9 0.9v0.9h0.9l0.8-0.9v-0.9zm12 0l-0.8 0.9v0.9h1.3l0.4-1.8zm83-140.5l3.5-0.8h46.8q9.9 1.1 9.9 8.1l0.4 2.2-18 68.3q8.1 1.8 8.1 9.9-6.7 30.7-11.1 33.9-5.5 4.6-10.3 5.6-7 29.2-12.1 29.2-4.6 4.3-9 4.3h-25.8q-9-1.6-9-9v-2.6q6.4-26.7 9-30.5 0-5.2 8.2-33.9l12-43.9q-15.4-19.2-15.4-24v-0.9q0-10 12.8-15.9zm-7.3 14.6v1.3q0 2.2 15.5 22.8l-20.6 77.3 0.8 3.5q-2.8 0-9.8 30.1 1.1 6 5.5 6h24.1q10.2 0 13.3-20.7l4.3-12.8h2.6q9.9 0 12.9-18.5 3.9-12.3 3.9-15.5 0-5.1-9.1-6l18.9-70.9v-0.9q-0.8-6-5.5-6h-46q-10.8 2.4-10.8 10.3zm7.3-2.1l1.3-1.3h45.1q1.3 0 1.3 1.7l-20.6 76.9h9.5l1.3 1.3q-5.2 20.3-6.9 24.1h-34.4q-1.1 0-1.3-1.7l20.6-78.7-15.9-21.5zm44.3 1.8h-39.5v0.4l14.6 20.6-0.9 3 0.4 1.7q-1.2 1.9-3.4 9.1l0.4 2.1v0.4q-3.4 7.2-3.4 9.9l0.9 0.9q0 2.7-3 6v0.9h0.4q0-2.3 4.3-2.6h1.7q1.3 0.4 1.3 2.6 0 3.9-5.6 4.7h-0.4l-2.6-2.6v1.3l0.9 1.3v1.3q-0.9 4.3-3.1 4.3v0.8q2.1-2.1 4.8-2.1h2.1q0-6 6-6h0.5l1.7 1.7v1.7q0 3.4-4.7 4.3h-0.5l-2.1-0.4v1.7q0 1.5-1.7 3.4l2.1-0.4h2.2l0.4 0.4h0.4q0-6.4 4.7-6.4h1.3l2.2 0.4-0.4-1.3q0-1.6 2.1-4.3v-0.4l-3.4 1.3q-3 0-3-3 0.9-4.3 4.3-4.3h1.2l2.6 0.8q0-3.5 1.7-7.7-2.2 2.2-3.8 2.2h-0.5l-1.7-1.8v-1.2q0-3.4 4.3-3.9h1.3l1.7 1.3 1.7-8.2-2.5 0.9q-3-0.9-3-2.6 1.2-3 4.3-3h0.4l2.1 1.7zm-34.8 2.6l1.3-1.3 0.9 0.9-1.3 1.2zm12-0.4l0.9-0.8h0.4l0.9 0.8-1.3 1.3-0.9-0.9zm12.1 0l0.8-0.8h0.4l0.5 0.4h0.4l-1.3 1.7-0.8-0.8zm-20.2 6l1.2-1.3h1.3l0.9 0.9v0.4q-0.9 1.7-2.6 1.7l-0.8-1.3zm12 0l1.3-1.3h1.3l0.8 0.9q-0.6 2.1-2.6 2.1l-0.8-1.3zm12-0.4l0.9-0.8h1.3l0.8 0.8v0.9q-0.4 1.3-2.6 1.3l-0.4-0.5zm-16.7 4.3l0.8 1.3v0.9l-1.7 1.7h-1.3l-1.3-1.3q0.9-2.6 3.5-2.6zm12 0l0.9 1.7q-0.9 2-1.8 2.2h-1.7l-0.8-0.9v-0.8q1-2.2 3.4-2.2zm-11.2 7.8l1.7-1.8h2.2l0.8 0.9q0 3.4-3.4 3.4h-0.4l-0.9-0.8zm13.8-1.7h1.7l1.3 1.3q0 2.5-3.5 3h-0.4q-1.1 0-1.3-1.8 0.7-1.8 2.2-2.5zm-6.5 5.6h0.9q1.3 0 1.3 1.7-1.6 3.4-4.3 3.4l-1.3-1.3v-0.4q0-3.4 3.4-3.4zm-7.3 5.5q2.2 0.4 2.2 1.3v0.9q-0.2 3.4-3.5 3.4-3-0.8-3-2.6 0-1.9 4.3-3zm4.7 5.6l1.8 1.3v1.7q0 3.5-3.5 3.5-1.9-0.8-3-2.6 0-3.4 4.7-3.9zm-8.1 6h1.3l1.3 1.3v0.5q-1.2 5.1-4.8 5.1-1.9-0.8-2.1-1.7v-2.2q1.9-3 4.3-3zm4.7 5.6q2.6 0.9 2.6 1.7v0.5q-0.9 4.7-4.3 4.7h-1.7l-1.3-1.3v-0.4q0-5.2 4.7-5.2zm-12.5 9h-0.4v1.3h0.4zm1.8 15.9l-2.2 0.5h-2.1l-0.9 3.8h3.9v-1.3q0-1.4 1.3-3zm12 0l-2.1 0.5h-2.2l-0.9 3.8h3.9q0-2.3 1.3-4.3zm-8.6 6.9l-3.4-0.4v1.3l-0.5 2.1h3.5zm12 0.4l-3.4-0.4-0.5 3h3.5zm-22.4 5.2h-0.4l-0.4 3h2.6l0.8-2.6h-2.1zm14.6 0.4h-3l-0.5 2.6h2.6zm12 0h-3l-0.4 2.2v0.4h2.6zm-21.5 6l-0.9 0.9v1.3h1.8l0.4-2.2zm13.3 0h-2.1l-0.5 2.2h2.2zm-20.6 6.4l-0.9 0.9v0.4h0.4l0.9-0.9v-0.4zm12 0l-0.8 0.9v0.4h0.8l0.4-1.3zm12.1 0h-0.9v1.3h0.9zm-34 12.5h23.2q0.7 0 1.3 1.7-5.7 21.9-7.3 23.6h-23.2l-0.8-0.9q5.1-24.4 6.8-24.4zm0 9.4l0.9 1.7q0 1.6-2.2 4.3h0.5l3.8-1.3q2.7 0.9 3 2.2v0.8l-0.4 2.2h3.5q0.9-5.2 5.1-5.2l3.4 1.3q0-2.2 2.6-10.7l0.5-1.7h-18.5q-0.9 0-2.2 6.4zm5.2-5.1h1.3l0.8 0.8v0.9q0 3-2.5 3-1.8-0.7-2.6-2.2v-0.8q0.7-1.7 3-1.7zm12 0h1.3l0.9 0.8v0.4q-0.6 3.5-2.6 3.5-1.7-0.7-2.6-2.2v-0.8q0.8-1.7 3-1.7zm-6.4 4.7h0.4l1.7 1.7v0.4q-0.7 4.8-4.7 4.8-2.3 0-2.6-1.3v-1.8q0-3.8 5.2-3.8z"/>
	<path id="PATCHER" class="s0" aria-label="PATCHER"  d="m370.8 176.4v-0.7l3.6-16.4q0.2-1.1 2.7-1.9 3.2-1.6 3.9-1.4 0.8 0.2 6.8 3.6 1 0.8 2.8 4.8 1.7 3.1 1.4 4.2l-1.2 5.6q0 0.1 1 0.6l0.1-0.1q0.7-1.2 1.8-0.9h0.4q0.7 0.2 4.8 2.5 1.4 1.7 1.2 2.9l-1.5 6.6q-0.6 1.5-1.9 1.3l-0.5-0.1-18.1-9.5q-4 2-4.9 1.8h-0.1q-1.8-0.4-2.3-2.9zm2.3 1.8l0.2 0.1q0.4 0.1 4.7-1.9l18.5 9.7q1.1 0 1.3-0.8l1.3-6.3q0.4-1.8-3.1-3.1-1.7-1-2.1-1.1-1-0.3-1.5 1.3h-0.1q-2.6-1.3-2.6-1.5l1.4-6.4q0.2-0.8-1.9-4.7-1.3-3.2-2.4-3.4-5.1-2.9-5.7-3l-0.1-0.1q-0.6 0.1-4.5 1.8-1.1 0.4-1.3 1.1l-3.5 16q0 2 1.4 2.3zm-0.1-1.3l-0.2-0.3 3.5-16q1.3-0.7 4.9-2.2l0.1 0.1q5.7 2.9 6 3.4l2.7 5.8-1.7 7.7 5.1 2.6 0.3-1.7q0.1-0.1 0.4-0.1l3.9 2.1-1.3 6.2-0.2 0.1-18.8-9.7h-0.1l-4.5 2zm3.9-15.9l-3.4 15.1h0.1l4.2-1.7 0.7 0.3-0.1-0.3 0.1-0.4 0.2-0.1q0.6 0.1 0.4 0.7v0.1q0 0.2-0.2 0.1l-0.1 0.1 1.6 0.7-0.1-0.6 0.4-0.2q0.7 0.2 0.5 0.8l-0.3 0.3v0.1l1.4 0.6v-0.5l0.3-0.3h0.1q0.7 0.4 0.6 1l-0.2 0.3 1.1 0.6v-0.6q0.2-0.3 0.4-0.3h0.1q0.5 0.2 0.7 0.7v0.1q-0.1 0.3-0.4 0.5l1.1 0.6v-0.2-0.3q0.1-0.3 0.5-0.4 0.8 0.2 0.8 1.1l-0.2 0.3 0.8 0.5 0.1-0.4q0.1-0.6 0.6-0.5l0.5 0.4h0.1v-0.5q0.2-0.4 0.5-0.4h0.2l0.4 0.3v-0.1l0.1-0.4 0.2-0.3q-0.6-0.1-0.9-0.5v0.7q-0.2 0.4-0.6 0.3-0.8-0.3-0.6-1v-0.4l0.3-0.2 0.3 0.1 0.5 0.3q0-0.5-0.7-0.7-0.1 0.4-0.5 0.3-0.9-0.4-0.8-1.2l0.1-0.4q-1-0.2-0.7-1.2 0.2-0.3 0.4-0.3l0.2 0.1 0.4 0.2 0.2-0.9-0.2-0.1q-0.6-0.1-0.6-1 0.3-0.5 0.4-0.4h0.2l0.5 0.3 0.1-0.8q0.1-0.1-0.6-0.4l-0.1-0.9q0.2-0.4 0.5-0.3l0.5 0.2 0.2-0.8q-0.9-0.3-0.7-1.2 0-0.4 0.7-0.2h0.1q-0.1-0.5-0.4-0.8-0.1 0.7-0.7 0.5h-0.1q-0.5-0.4-0.3-1.1 0.2-0.4 0.6-0.3l0.2 0.2-0.5-0.9q-0.2 0.3-0.5 0.5h-0.1q-0.7-0.3-0.5-1.1 0.2-0.4 0.7-0.3l-0.4-0.8q-0.1 0.6-0.6 0.5-0.5-0.3-0.4-0.9v-0.2q0.1-0.2 0.7-0.1l-0.3-0.6q-0.2 0-0.2 0.2h-0.1-0.3q-0.6-0.1-0.7-0.9l-0.9-0.4q-0.1 0.3-0.3 0.2h-0.1q-0.4-0.1-0.7-0.9l-1-0.5v0.1q0 0.3-0.3 0.2-0.4-0.1-0.4-0.7l-0.5-0.3zm-2.6 13.6l-0.1-0.2v-0.1l0.2-0.1 0.2 0.3-0.2 0.1zm0.5-2.1l-0.1-0.2v-0.1l0.2-0.1 0.1 0.3-0.1 0.1zm0.5-2.1l-0.1-0.2 0.2-0.1 0.1 0.2v0.1zm0.4-2.1l-0.1-0.2 0.2-0.1 0.2 0.3h-0.1zm0.5-2l-0.2-0.3 0.2-0.1 0.2 0.3zm0.4-2.2l-0.1-0.2v-0.1l0.2-0.1 0.1 0.2-0.1 0.2zm0.5-2.1l-0.1-0.2 0.2-0.1 0.1 0.2v0.1zm-1.8 12v-0.1l0.2-0.1h0.1l0.2 0.3-0.1 0.1-0.2 0.1q-0.2-0.1-0.2-0.3zm0.6-1.8l-0.1-0.3v-0.1l0.2-0.2 0.2 0.3v0.2l-0.2 0.1zm0.5-2.1l-0.2-0.3v-0.1l0.2-0.1h0.2l0.1 0.2v0.2l-0.2 0.1zm0.4-2.1l-0.1-0.3v-0.1l0.2-0.1 0.2 0.3v0.1l-0.2 0.1zm0.6-2.1l-0.3-0.3v-0.1l0.2-0.1h0.1l0.2 0.3-0.1 0.1zm0.4-2.1l-0.1-0.3v-0.2l0.2-0.1h0.1l0.1 0.3v0.2l-0.2 0.1zm0.5-2.2l-0.2-0.2v-0.2l0.2-0.1q0.3 0.2 0.3 0.3l-0.1 0.1-0.1 0.2zm-1.6 12.2l-0.3-0.4 0.1-0.2 0.2-0.1 0.1 0.1 0.3 0.3-0.1 0.2-0.2 0.1zm0.3-2.7q0-0.1 0.3-0.1 0.3 0.3 0.3 0.4l-0.1 0.2-0.2 0.2q-0.4-0.2-0.3-0.7zm0.5-2.1l0.2-0.1q0.4 0.1 0.3 0.6 0 0.2-0.3 0.1-0.3-0.2-0.2-0.6zm0.6-1.5l-0.2-0.4v-0.2l0.2-0.1 0.2 0.1 0.2 0.3v0.2l-0.2 0.1zm0.5-2.1l-0.3-0.4 0.1-0.2 0.1-0.1 0.2 0.1 0.2 0.3v0.2l-0.2 0.1zm0.3-2.7q0-0.1 0.2-0.1 0.3 0.3 0.4 0.4l-0.1 0.2-0.2 0.1-0.2-0.1q-0.2-0.1-0.1-0.5zm0.4-2.1q0.1-0.1 0.3-0.1 0.4 0.2 0.3 0.6-0.1 0.2-0.3 0.1-0.3-0.2-0.3-0.6zm-1.3 12.8l-0.3-0.4v-0.2l0.3-0.2q0.4 0.3 0.4 0.4l-0.1 0.3-0.2 0.2zm0.2-2.8q0.1-0.2 0.3-0.1l0.3-1.5-0.1-0.5 0.3-0.2 0.3-1.4-0.2-0.4 0.3-0.4 0.3-1.1-0.1-0.7 0.3-0.3 0.3-1.2 0.1-0.1q-0.3-0.1-0.2-0.6l0.3-0.1q0.4 0.1 0.3 0.7l1.3 0.6q0.1-0.5 0.4-0.4 0.3 0.1 0.6 1l0.9 0.4q0.1-0.5 0.4-0.4 0.6 0.1 0.6 1l1 0.4q0.1-0.5 0.3-0.5l0.4 0.1q0.4 0.4 0.3 0.8l-0.1 0.2q-0.2 0.3-0.5 0.2l-0.2 0.9q0.4 0.4 0.3 0.8v0.3q-0.2 0.3-0.6 0.2l-0.2 0.9q0.4 0.1 0.4 0.7l-0.1 0.3q0 0.2-0.5 0.1l-0.2 1q0.3 0.1 0.3 0.7l-0.1 0.4q0 0.2-0.5 0.1l-0.2 0.9 0.4 0.6-0.1 0.3q-0.2 0.3-0.6 0.2-0.3 0-0.5-0.6l-0.9-0.5-0.3 0.1h-0.2q-0.3-0.1-0.5-0.6l-1-0.6-0.5 0.1q-0.5-0.6-1.5-1.2h-0.5q-0.4-0.2-0.3-0.6zm2.4-10.6l0.1-0.1h0.4l0.1 0.3v0.3l-0.2 0.1h-0.3q-0.2-0.2-0.1-0.6zm0 3.3l-1.6 7.4 5.2 2.7 1.6-7.4zm-1.7 9.1l0.1-0.4 0.2-0.1q0.6 0.1 0.4 0.7v0.1q0 0.2-0.3 0.2-0.3-0.2-0.4-0.5zm2.3-10.6l0.1-0.3 0.3-0.2q0.5 0.1 0.4 0.7v0.1q-0.1 0.2-0.4 0.2-0.3-0.2-0.4-0.5zm-1.6 12l0.1-0.3 0.2-0.1q0.7 0.3 0.6 0.9l-0.3 0.2h-0.3q-0.4-0.3-0.3-0.7zm0.9-3.9l1-4.6 0.1-0.1q2.7 1.3 2.6 1.5l-1 4.6h-0.1v0.1q-2.7-1.3-2.6-1.5zm2-8.9v-0.1l0.3-0.2q0.4 0.3 0.5 0.8v0.2l-0.2 0.1-0.5-0.1q-0.2 0-0.1-0.7zm-0.3 5.5l-0.7 3 1 0.6 0.7-3.1zm-1.4 6.7q0.2-0.3 0.3-0.3l0.2 0.1q0.6 0.1 0.5 0.6l-0.1 0.1-0.4 0.3h-0.3q-0.2-0.1-0.2-0.8zm2.4-10.6q0.1-0.3 0.3-0.3l0.1 0.1q0.4 0.1 0.5 0.5v0.2l-0.5 0.3h-0.2q-0.2-0.1-0.2-0.8zm-1.6 12.2v-0.2l0.3-0.1h0.1q0.4 0.1 0.5 0.4l-0.1 0.3q0 0.4-0.3 0.4h-0.3q-0.2-0.1-0.2-0.8zm2.8-12.7v-0.2l0.3-0.2 0.2 0.1q0.5 0.1 0.4 0.6l-0.1 0.3q-0.2 0.3-0.4 0.2-0.5-0.3-0.4-0.8zm-1.6 12l0.3-0.2q0.9 0.3 0.7 1 0 0.2-0.5 0.3-0.6-0.2-0.5-1.1zm2.3-10.6l0.3-0.2 0.2 0.1q0.6 0.1 0.5 0.9 0 0.2-0.4 0.3-0.7-0.2-0.6-1.1zm-1.6 12.4l0.1-0.3 0.2-0.1h0.4q0.4 0.4 0.3 0.8v0.3l-0.2 0.1h-0.3q-0.6-0.3-0.5-0.8zm1.2-0.7q0.2-0.3 0.4-0.4 0.9 0.3 0.8 0.9-0.1 0.3-0.6 0.5h-0.1q-0.7-0.2-0.5-1zm0.5-2.1q0-0.3 0.4-0.4 0.9 0.3 0.7 0.9v0.2q-0.3 0.4-0.7 0.3l-0.2-0.1q-0.2 0-0.2-0.9zm0.4-2.1q0.2-0.4 0.3-0.4l0.3 0.1q0.7 0.2 0.6 0.8-0.1 0.6-0.7 0.4h-0.2q-0.3-0.1-0.3-0.9zm0.5-2.2q0.2-0.3 0.4-0.3h0.1q0.6 0.2 0.7 0.7v0.1q-0.3 0.7-0.8 0.6-0.5-0.4-0.4-1.1zm0.5-2.1q0.2-0.3 0.4-0.3h0.1q0.5 0.1 0.7 0.6l-0.1 0.2q-0.2 0.7-0.8 0.5-0.4-0.1-0.3-1zm-1.2 10.2q0.2-0.5 0.7-0.4 0.6 0.3 0.5 0.8v0.1q-0.2 0.6-0.7 0.5-0.6-0.4-0.5-1zm0.5-2.3q0.2-0.3 0.7-0.2 0.2 0 0.5 0.7v0.2q-0.2 0.6-0.8 0.5-0.5-0.2-0.4-1.2zm0.5-1.9v-0.2l0.4-0.2h0.2q0.4 0.1 0.6 0.6l-0.1 0.3q-0.1 0.6-0.7 0.4-0.5-0.1-0.4-0.9zm0.4-2.1l0.1-0.2 0.4-0.3 0.2 0.1q0.4 0.1 0.6 0.6l-0.1 0.4-0.5 0.3h-0.4q-0.4-0.4-0.3-0.9zm0.5-2.1q0.1-0.6 0.7-0.5 0.6 0.3 0.5 0.9v0.1q-0.1 0.5-0.7 0.4l-0.2-0.1q-0.4-0.4-0.3-0.8zm-0.7 7.7q0.2-0.3 0.3-0.3l0.3 0.1q0.7 0.1 0.7 1.1-0.2 0.2-0.5 0.3-1-0.3-0.8-1.2zm0.8 1.6v-0.1l0.4-0.3 0.4 0.1q0.5 0.5 0.4 1l-0.1 0.4-0.3 0.2-0.2-0.1q-0.8-0.2-0.6-1.2zm2 1.9v0.6l-0.1 0.2 0.7 0.3 0.1-0.4 0.2-0.3h-0.3q-0.2-0.1-0.6-0.5zm1.4-0.4l-0.3 0.7h0.3q0.2 0.1 0.4 0.4h0.1v-0.1l0.1-0.4 0.1-0.3-0.6-0.2-0.1-0.1zm0.4-1.6l-0.1 0.3 0.1-0.1h0.1l0.5 0.3q0.1-0.2-0.6-0.5zm0.4 3.2l-0.2 0.6 0.6 0.3 0.2-0.6q-0.4 0-0.6-0.3zm0.2-1.4q0.5 0.1 0.7 0.3l0.2-0.7-0.6-0.2q0 0.4-0.3 0.6zm1 0.9l-0.1 0.6 0.5 0.2 0.1-0.5zm0.4-1.6l0.1 0.2 0.4 0.1v-0.2l-0.5-0.2zm0.3 3.7v0.1l0.5 0.2v-0.1-0.1-0.1l0.1-0.2h-0.1l-0.4-0.2 0.1 0.1-0.1 0.2zm0.6-2.5l-0.1 0.5 0.5 0.2v-0.4h0.1zm0.4-2.2l-0.1 0.5 0.5 0.3-0.1-0.3 0.2-0.2h-0.1zm0.3 3.7l-0.1 0.5 0.3 0.1 0.1-0.3q0-0.1-0.3-0.3zm0.4-2v0.3l0.3 0.2 0.1-0.4zm0.3 3.9l0.1 0.2h0.1l0.1-0.2-0.3-0.1zm0.5-2.2l0.1 0.2 0.1 0.1 0.1-0.3-0.3-0.1zm0.5-2.2l-0.1 0.2 0.3 0.1 0.1-0.3zm-20.4-26v-0.7l3.6-16.4q0.3-1.1 3.5-2.2 2.3-1.3 3.3-1.1 0.6 0.2 19.8 10.3 1.6 1.7 1.2 3.2l-0.9 4.4q-0.3 1.4-2.2 1.2l-5.8-2.9-0.3 1.6h0.7 0.4q0.7 0.2 4.8 2.6 1.5 1.6 1.2 2.9l-1.5 6.5q-0.6 1.6-1.9 1.3l-0.5-0.1-18.1-9.5q-4 2-4.8 1.8h-0.2q-1.8-0.4-2.3-2.9zm2.3 1.9h0.2q0.4 0.1 4.7-1.8l18.5 9.6q1.1 0 1.3-0.8l1.4-6.2q0.4-1.9-3.2-3.2-1.6-1-2.1-1.1-1-0.3-1.5 1.3h-0.1q-0.7-0.3-0.7-0.5l1-4.6 0.1-0.1v-0.1l6.4 3.3q1.1 0.1 1.3-0.8l1-4.2q0.4-1.8-3.1-3.1-16.5-8.8-17.2-8.9l-0.1-0.1q-0.6 0.1-4.5 1.8-1.1 0.4-1.3 1.1l-3.5 16q0 2 1.4 2.4zm-0.1-1.4l-0.2-0.3 3.6-16q1.2-0.7 4.8-2.2l0.2 0.1 18.8 9.8v0.1l-0.9 4.1q0 0.2-0.3 0.2l-7.2-3.7-1.6 7.3 3.2 1.7 0.4-1.7q0-0.1 0.3-0.1l3.9 2.1-1.3 6.2-0.2 0.1-18.8-9.7h-0.1l-4.4 2zm3.8-15.9l-3.4 15.1 0.1 0.1 4.3-1.8 0.6 0.3-0.1-0.3 0.1-0.4 0.2-0.1q0.6 0.1 0.5 0.8h-0.1q0 0.2-0.2 0.1v0.1l1.5 0.7v-0.6l0.3-0.2q0.7 0.2 0.6 0.8l-0.3 0.3-0.1 0.1 1.4 0.6v-0.5l0.4-0.3q0.8 0.4 0.6 1l-0.2 0.3 1.1 0.6v-0.6q0.2-0.3 0.4-0.3h0.1q0.6 0.2 0.7 0.7v0.1q-0.1 0.3-0.4 0.5l1.1 0.6v-0.2-0.3q0.1-0.3 0.5-0.4 0.8 0.2 0.8 1.2l-0.1 0.2 0.8 0.5v-0.4q0.2-0.6 0.6-0.5l0.5 0.4h0.1v-0.5q0.2-0.3 0.5-0.4h0.2l0.4 0.3 0.1-0.1v-0.4l0.2-0.3q-0.6-0.1-0.9-0.5v0.8q-0.2 0.3-0.6 0.2-0.8-0.3-0.6-1l0.1-0.4 0.2-0.2 0.3 0.1 0.5 0.3-0.1-0.5 0.1-0.4q-0.8-0.3-0.7-1l0.1-0.1q0.1-0.4 0.4-0.5l0.5 0.1 0.2-0.7q-0.8-0.1-0.7-1v-0.1q0.1-0.4 0.5-0.4h0.1l0.4 0.2 0.1-0.6q0-0.1-0.5-0.5l-0.1-0.8q0.1-0.5 0.7-0.4l0.2 0.1 0.2-0.6q-0.8-0.2-0.6-1.3 0.2-0.4 0.6-0.4l0.2 0.2h0.3l0.1-0.5 0.1-0.1q-1.1-0.3-0.9-1.2l0.1-0.3 0.3-0.2 0.3 0.1q0.3 0.1 0.5 0.4v-0.7q0.3-0.4 0.7-0.3l0.5 0.3v-0.1-0.3l0.1-0.1-0.7-0.4q-0.1 0.6-0.3 0.6l-0.4-0.1q-0.7-0.2-0.7-1.1 0.1-0.1-0.6-0.4-0.1 0.4-0.4 0.5l-0.3-0.1q-0.7-0.1-0.6-1.2l-0.8-0.3q-0.1 0.5-0.3 0.4l-0.5-0.1q-0.4-0.3-0.3-0.9l-0.9-0.5v0.1 0.1l-0.3 0.2h-0.1q-0.9-0.3-0.7-1l-1-0.4v0.1q0 0.3-0.4 0.2-0.4-0.1-0.6-0.8l-1-0.6q-0.1 0.4-0.4 0.3-0.4-0.1-0.4-0.7l-0.5-0.3zm-2.6 13.6l-0.1-0.2 0.2-0.2 0.2 0.3-0.2 0.1zm0.5-2.1l-0.1-0.2v-0.1l0.2-0.1 0.1 0.3-0.1 0.1zm0.5-2.1l-0.1-0.2 0.2-0.1 0.1 0.2v0.1zm0.4-2.1l-0.1-0.2 0.2-0.1 0.2 0.3h-0.1zm0.5-2l-0.2-0.3 0.2-0.1 0.2 0.3zm0.4-2.2l-0.1-0.2 0.2-0.2 0.1 0.2v0.2zm0.4-2.1l-0.1-0.2 0.2-0.1 0.1 0.2v0.1zm-1.8 12.1v-0.2l0.2-0.1h0.1l0.2 0.3v0.1l-0.2 0.2q-0.3-0.2-0.3-0.3zm0.7-1.9l-0.2-0.3v-0.1l0.2-0.2 0.3 0.3-0.1 0.2-0.2 0.1zm0.5-2.1l-0.2-0.3v-0.1l0.2-0.1h0.2l0.1 0.2v0.2l-0.2 0.1zm0.5-2.1l-0.2-0.3v-0.1l0.2-0.1h0.1l0.1 0.3v0.1l-0.2 0.1zm0.6-2.1l-0.3-0.3v-0.1l0.2-0.1h0.1l0.2 0.3v0.1zm0.3-2.1l-0.1-0.3v-0.2l0.2-0.1h0.1l0.1 0.3v0.2l-0.2 0.1zm0.5-2.2l-0.2-0.2 0.1-0.2 0.1-0.1q0.3 0.2 0.3 0.3v0.1l-0.2 0.2zm-1.6 12.2l-0.2-0.4v-0.1l0.2-0.2 0.1 0.1 0.3 0.3-0.1 0.2-0.2 0.1zm0.3-2.7q0-0.1 0.3-0.1 0.3 0.3 0.3 0.4v0.2l-0.3 0.2q-0.4-0.2-0.3-0.7zm0.5-2.1l0.2-0.1q0.4 0.1 0.3 0.6 0 0.2-0.2 0.1-0.4-0.2-0.3-0.6zm0.6-1.5l-0.2-0.4v-0.1l0.2-0.2 0.2 0.1 0.2 0.3v0.2l-0.2 0.1zm0.5-2.1l-0.3-0.4 0.1-0.1 0.2-0.2 0.1 0.1 0.2 0.3v0.2l-0.2 0.1zm0.3-2.7q0-0.1 0.3-0.1 0.3 0.3 0.3 0.4l-0.1 0.2-0.2 0.1h-0.2q-0.2-0.2-0.1-0.6zm0.5-2.1q0-0.1 0.2-0.1 0.4 0.2 0.3 0.6 0 0.2-0.3 0.1-0.3-0.2-0.2-0.6zm-1.4 12.8l-0.3-0.4v-0.2l0.3-0.2q0.4 0.3 0.4 0.4l-0.1 0.3-0.2 0.2zm0.2-2.8q0.1-0.1 0.3-0.1l0.3-1.4q-0.1-0.4-0.1-0.6l0.3-0.2 0.3-1.4-0.2-0.4 0.4-0.3 0.2-1.2-0.1-0.6 0.3-0.4 0.3-1.2 0.1-0.1q-0.3-0.1-0.2-0.6l0.3-0.1q0.4 0.1 0.3 0.7l1.3 0.7q0.1-0.6 0.4-0.5 0.3 0.1 0.6 1l0.9 0.4q0.2-0.5 0.4-0.4h0.1q0.6 0.1 0.5 1l1 0.4q0.1-0.4 0.2-0.4l0.3 0.1q0.6 0.1 0.6 1l0.8 0.4v-0.1q0.1-0.4 0.4-0.4l0.3 0.1q0.4 0.1 0.5 0.6l-0.1 0.5-0.3 0.2-0.4-0.1-0.2 0.8q0.5 0.1 0.5 1-0.3 0.5-0.5 0.5h-0.1l-0.1-0.1-0.1-0.1-0.2 0.9q0.6 0.1 0.5 1-0.2 0.4-0.4 0.4l-0.4-0.1-0.1 0.8q0.5 0.1 0.5 0.9-0.3 0.5-0.4 0.5l-0.4-0.1-0.2 0.9q0.7 0.2 0.5 0.8v0.2l-0.5 0.3h-0.1q-0.5-0.1-0.6-0.9l-0.9-0.5v0.1l-0.2 0.1-0.5-0.1q-0.2-0.1-0.4-0.6l-0.9-0.5-0.3 0.1h-0.1q-0.4-0.1-0.6-0.6l-1-0.6-0.5 0.1q-0.5-0.6-1.5-1.2h-0.5q-0.4-0.2-0.3-0.6zm2.4-10.6l0.2-0.1 0.3 0.1 0.1 0.2v0.3l-0.2 0.2-0.2-0.1q-0.3-0.2-0.2-0.6zm0 3.3l-1.6 7.4 7.1 3.6 1.6-7.4zm-1.7 9.2l0.1-0.4 0.2-0.1q0.6 0.1 0.4 0.7v0.1q0 0.2-0.3 0.2-0.3-0.2-0.4-0.5zm2.3-10.6l0.1-0.3 0.3-0.2q0.4 0.1 0.4 0.7v0.1q-0.1 0.2-0.4 0.2-0.3-0.2-0.4-0.5zm-1.6 11.9l0.1-0.2 0.2-0.1q0.7 0.3 0.6 0.9l-0.3 0.2-0.3-0.1q-0.4-0.2-0.3-0.7zm0.9-3.8l1-4.6 0.1-0.1v-0.1q4.2 2.2 4.5 2.5l-1 4.6-0.1 0.1v0.1q-4.3-2.2-4.5-2.5zm1.9-8.9l0.1-0.1 0.3-0.2q0.4 0.3 0.5 0.7v0.3l-0.2 0.1-0.5-0.1q-0.2-0.1-0.2-0.7zm-0.2 5.5l-0.7 3 2.9 1.5 0.7-3zm-1.4 6.6q0.1-0.2 0.3-0.2h0.2q0.5 0.2 0.4 0.7v0.1l-0.5 0.3-0.2-0.1q-0.2 0-0.2-0.8zm2.3-10.6q0.2-0.2 0.3-0.2h0.2q0.4 0.1 0.5 0.5l-0.1 0.3-0.4 0.3-0.3-0.1q-0.2 0-0.2-0.8zm-1.6 12.2l0.1-0.1 0.2-0.2h0.2q0.4 0.1 0.5 0.5l-0.1 0.3q-0.1 0.4-0.3 0.4l-0.3-0.1q-0.3 0-0.3-0.8zm2.8-12.6l0.1-0.2 0.3-0.2h0.1q0.5 0.1 0.4 0.7v0.3q-0.3 0.2-0.5 0.2-0.5-0.4-0.4-0.8zm-1.6 11.9l0.4-0.2q0.8 0.4 0.7 1-0.1 0.2-0.5 0.3-0.7-0.1-0.6-1.1zm2.4-10.6l0.2-0.1h0.3q0.5 0.1 0.5 0.9-0.1 0.2-0.5 0.3-0.7-0.1-0.5-1.1zm-1.6 12.4v-0.2l0.3-0.2 0.4 0.1q0.4 0.4 0.3 0.8l-0.1 0.3-0.2 0.1-0.2-0.1q-0.7-0.2-0.5-0.8zm2.8-12.7v-0.3l0.3-0.1h0.2q0.6 0.2 0.5 0.8l-0.1 0.3-0.3 0.2q-0.8-0.3-0.6-0.9zm-1.7 12q0.3-0.3 0.4-0.3 1 0.2 0.8 0.9-0.1 0.3-0.6 0.5h-0.1q-0.6-0.3-0.5-1.1zm2.4-10.6q0.2-0.3 0.5-0.3 0.8 0.3 0.6 0.9 0 0.3-0.5 0.5h-0.1q-0.7-0.3-0.5-1.1zm-1.6 12.4q0.1-0.6 0.6-0.4 0.7 0.2 0.6 0.8v0.1q-0.3 0.6-0.8 0.5-0.5-0.5-0.4-1zm2.8-12.7v-0.2l0.4-0.3 0.2 0.1q0.5 0.1 0.6 0.6v0.2q-0.2 0.6-0.8 0.5-0.6-0.3-0.4-0.9zm-1.6 12q0.2-0.4 0.3-0.4l0.3 0.1q0.6 0.2 0.6 1.1-0.2 0.3-0.5 0.4-0.9-0.3-0.7-1.2zm0.4-2.2q0.3-0.3 0.4-0.3l0.3 0.1q0.6 0.1 0.6 1.1-0.1 0.4-0.6 0.3-0.7-0.1-0.7-1.2zm0.5-2.1q0.2-0.3 0.4-0.3h0.2q0.8 0.4 0.7 1.1-0.3 0.5-0.4 0.4h-0.2q-0.9-0.2-0.7-1.2zm0.5-2.1q0.2-0.4 0.5-0.3 0.9 0.4 0.7 1.1-0.2 0.4-0.4 0.4l-0.3-0.1q-0.6-0.1-0.5-1.1zm0.4-2.1q0.2-0.3 0.4-0.3h0.3q0.6 0.2 0.6 1.1-0.1 0.3-0.6 0.4-0.7-0.2-0.7-1.2zm0.5-2.1q0.2-0.3 0.4-0.3h0.2q0.7 0.2 0.7 1.1-0.1 0.5-0.7 0.4-0.7-0.2-0.6-1.2zm-1.6 12.2l0.1-0.2 0.3-0.2 0.4 0.1q0.6 0.4 0.5 1l-0.1 0.3-0.3 0.2h-0.2q-0.9-0.2-0.7-1.2zm0.5-2.1v-0.2l0.4-0.2h0.2q0.6 0.1 0.6 1l-0.1 0.4-0.2 0.2-0.2-0.1q-0.9-0.2-0.7-1.1zm0.4-2l0.1-0.1q0.1-0.4 0.4-0.5 1 0.3 0.8 1.2l-0.1 0.3q-0.2 0.2-0.4 0.2-0.9-0.4-0.8-1.1zm0.5-2.2q0.2-0.5 0.4-0.4h0.3q0.6 0.2 0.6 1l-0.1 0.2q-0.1 0.4-0.5 0.3-0.7-0.1-0.7-1.1zm0.5-2.2q0.2-0.4 0.3-0.4l0.3 0.1q0.7 0.1 0.6 1l-0.1 0.4-0.2 0.2-0.3-0.1q-0.8-0.2-0.6-1.2zm0.5-2.1v-0.2l0.4-0.2h0.1q0.8 0.4 0.7 1.1l-0.1 0.3-0.3 0.2h-0.2q-0.8-0.2-0.6-1.2zm0.4-2l0.1-0.3 0.4-0.2h0.1q0.6 0.1 0.7 1l-0.1 0.4q-0.1 0.1-0.5 0.2-0.8-0.4-0.7-1.1zm-0.8 14.5l0.1 0.5-0.2 0.2 0.8 0.4v-0.4l0.2-0.4h-0.2q-0.3 0-0.7-0.4zm2.9-12.1l-0.2 0.2 0.3 0.1 0.5 0.2v-0.3l0.2-0.4q-0.6-0.2-0.8-0.4zm1.3-0.6l-0.2 0.2h0.3l0.5 0.4 0.2-0.8-0.3-0.1-0.5-0.3 0.1 0.1zm-2.7 12.2l-0.2 0.7h0.2q0.2 0.1 0.5 0.4h0.1l-0.1-0.1 0.1-0.4 0.1-0.3-0.6-0.2v-0.1zm0.3-1.6l-0.1 0.2h0.1 0.1l0.5 0.3q0.1-0.2-0.6-0.5zm2-9l-0.1 0.5 0.6 0.3 0.3-0.5zm-1.6 12.2l-0.2 0.6 0.6 0.3 0.2-0.6q-0.4-0.1-0.6-0.3zm0.2-1.5q0.5 0.1 0.7 0.3l0.1-0.7-0.5-0.2q-0.1 0.4-0.3 0.6zm2.4-10.6q0.4 0.1 0.6 0.3l0.2-0.7-0.4-0.1h-0.1v-0.1q-0.1 0.4-0.3 0.6zm0.6-2.6l-0.1 0.5q0.4 0.1 0.6 0.3l0.1-0.5zm-2 14.1l-0.1 0.7 0.5 0.2 0.1-0.6zm0.3-1.6l0.2 0.2 0.3 0.1 0.1-0.2-0.5-0.2zm2.4-8.3l0.1-0.4-0.5-0.3-0.1 0.3q-0.1 0.2 0.5 0.4zm0-2.7l-0.1 0.5 0.6 0.3q0.1-0.7-0.5-0.8zm-2.1 14.7v0.1l0.5 0.3v-0.2l-0.1-0.1v-0.1l0.2-0.2h-0.1l-0.4-0.2v0.1 0.2zm0.6-2.5l-0.2 0.5 0.5 0.3v-0.4l0.1-0.1zm0.5-2.1l-0.2 0.4 0.5 0.3v-0.3l0.1-0.2h-0.1zm1.9-8.5l-0.2 0.5 0.5 0.2v-0.3h0.1v-0.1zm0.5-1.9l-0.2 0.2 0.5 0.3v-0.1-0.2h0.1v-0.1l-0.4-0.2zm-2 14.1l-0.1 0.5 0.3 0.1 0.1-0.3q0-0.1-0.3-0.3zm0.4-2l-0.1 0.3 0.4 0.2 0.1-0.4zm1.9-8.4l-0.1 0.2 0.4 0.1v-0.2zm0.5-2.1l-0.1 0.4 0.4 0.1 0.1-0.4zm-2.1 14.5l0.1 0.2 0.2 0.1v-0.3l-0.3-0.1zm0.5-2.1l0.1 0.1 0.2 0.1v-0.3l-0.3-0.1zm0.5-2.2v0.2l0.2 0.2 0.1-0.3zm1.9-8.5l-0.1 0.2 0.3 0.2 0.1-0.3zm0.5-2.2l-0.1 0.3 0.3 0.1 0.1-0.3zm-22.8-16.2l4.6-20.6q0.3-1.4 2.2-1.2 7.5 3.6 7.3 4.2 0.9 1.3 0.6 2.8l-0.9 4-0.1 0.1v0.1l8.6 4.4q0.2-1 1.8-1l0.3 0.1q4.8 2.2 5.5 3.1 0.8 1.5 0.6 2.3l-1.5 6.6q-0.6 1.5-1.9 1.2h-0.2q-0.7-0.2-17-8.8l-0.6 2.8q-0.3 1.2-3.4 2.2-2.5 1.3-3.2 1.1h-0.3q-2.1-0.5-2.4-3.4zm1.9 2.1l0.6 0.3q0.4 0.1 4.3-1.7 1.5-0.4 1.7-1.3l0.7-3.3 0.2-0.1 17.5 9.1q0.9 0.2 1.3-0.9l1.4-6.1q0.4-1.8-3.2-3.2l-2-1.1q-1.3-0.1-1.6 1.4l-10.8-5.6v-0.1q0.8-0.3 1-1.3l0.8-3.4q0.5-2.2-2.7-3.4-3.9-2.1-4.5-2.2-0.8-0.2-1.2 0.9l-4.4 19.8q-0.3 1.4 0.9 2.2zm0.4-1.1l-0.2-0.3 4.4-19.9 0.4-0.2q5 2.5 5.8 3.1l-1 4.2q0 0.2-0.2 0.1l-1.7-0.8-0.5 2.2q0 0.1 5.2 2.8l9.3 4.9 0.4-1.7 0.2-0.1q4.1 1.9 4 2.1l-1.3 6.1-0.2 0.2q-0.7-0.3-18.6-9.7l-1.1 4.8q-0.3 0.4-4.8 2.2zm4.6-19.7l-4.1 18.9 3.9-1.7 0.3-1.3-0.1-0.6 0.3-0.2 0.3-1.3-0.2-0.5 0.4-0.3 0.1-0.8q0.1-0.2 0.4-0.1l4.5 2.3h0.1 0.1l1.7 1h0.3q0.2 0.1 0.5 0.4l0.2 0.1v-0.1-0.5q0.1-0.5 0.6-0.4 0.7 0.3 0.5 0.8v0.3l-0.4 0.3 0.1 0.1 0.7 0.1 0.4 0.4 0.1 0.1q-0.2-0.4-0.1-0.8 0.2-0.4 0.3-0.4l0.3 0.1q0.7 0.1 0.6 1v0.1l-0.2 0.4h0.3l0.6 0.4v-0.1l0.1-0.5 0.2-0.3h-0.1-0.1q-1-0.2-0.8-1l0.1-0.4 0.1-0.1v-0.1q-1.1-0.2-0.9-1.2v-0.2q0.2-0.2 0.5-0.2h0.1l-0.1-0.1-0.9-0.1q-0.5-0.7-0.8-0.7l-0.1 0.1q0.6 0.1 0.5 0.7v0.1q-0.1 0.6-0.7 0.5l-0.1-0.1q-0.5-0.4-0.3-1.1 0.2-0.3 0.6-0.2v-0.1l-0.5-0.2h-0.3q-1.3-1.1-2.4-1.3 0.1-0.3-2-1.1 0-0.2-2.2-1.2-0.6-0.4-0.6-0.5l0.2-1-0.1-0.5 0.3-0.2 0.2-1.2 0.1-0.1v-0.1q-0.2-0.2-0.1-0.6l0.1-0.1h0.1q0.4 0.1 0.4 0.3l-0.1 0.4 1.3 0.6 0.3-0.4 0.3-1.4-0.1-0.2v-0.1l0.3-0.6 0.1-0.6-0.3-0.1q-0.1 0.3-0.3 0.3l-0.3-0.1q-0.2 0-0.2-0.7l-1.3-0.6q-0.1 0.3-0.2 0.2h-0.2q-0.1 0-0.3-0.5-1-0.7-1.5-0.8v0.2l-0.2-0.1q-0.1 0 0-0.3zm-3.5 17.3l-0.1-0.2 0.2-0.1 0.1 0.2v0.2zm0.5-2.2l-0.2-0.2 0.2-0.1 0.2 0.3-0.1 0.1zm0.5-2.1l-0.1-0.3 0.1-0.1 0.2 0.3zm0.4-2.2l-0.1-0.1v-0.1l0.2-0.1 0.1 0.1v0.3zm0.4-2.2l-0.1-0.1 0.2-0.2 0.1 0.2v0.2zm0.5-2.2l-0.2-0.2 0.2-0.1 0.2 0.2-0.1 0.2zm0.6-2.1l-0.2-0.3 0.2-0.1 0.1 0.3zm0.4-2.1l-0.1-0.2v-0.1l0.2-0.1 0.2 0.3-0.2 0.1zm-2 14.3l-0.2-0.3 0.2-0.2 0.1 0.1 0.2 0.2-0.1 0.1-0.2 0.1zm0.5-2.1l-0.2-0.3v-0.1l0.2-0.1h0.1l0.2 0.3v0.1l-0.2 0.1zm0.5-2l-0.2-0.4v-0.1l0.2-0.1h0.1l0.1 0.3v0.2zm0.4-2.2l-0.2-0.3 0.1-0.1 0.1-0.1h0.1l0.2 0.2v0.2l-0.2 0.1zm0.4-2.1l-0.1-0.3v-0.1l0.2-0.2 0.2 0.3v0.2l-0.2 0.1zm0.5-2.1l-0.2-0.3v-0.1l0.2-0.1h0.2l0.1 0.2v0.2l-0.2 0.1zm0.5-2.1l-0.2-0.3v-0.1l0.2-0.1 0.2 0.3v0.1zm0.5-2.1l-0.3-0.3v-0.2l0.2-0.1h0.1l0.2 0.3-0.1 0.2zm-2.3 13.7l0.2-0.1q0.5 0.1 0.4 0.6-0.1 0.2-0.3 0.1-0.4-0.2-0.3-0.6zm0.7-1.5l-0.2-0.4v-0.2l0.2-0.1 0.1 0.1 0.3 0.3-0.1 0.2-0.2 0.1zm0.5-2.1l-0.2-0.4v-0.2l0.2-0.1h0.2l0.2 0.4v0.2l-0.2 0.1zm0.2-2.7q0.1-0.1 0.3-0.1 0.3 0.3 0.3 0.4v0.2l-0.2 0.1-0.2-0.1q-0.2-0.1-0.2-0.5zm0.5-2.1q0-0.2 0.3-0.1 0.3 0.2 0.2 0.6 0 0.2-0.2 0.1-0.4-0.2-0.3-0.6zm0.7-1.5l-0.3-0.4 0.1-0.2 0.2-0.1 0.2 0.1q0.2 0.1 0.1 0.5l-0.2 0.1zm0.5-2.1l-0.2-0.4v-0.2l0.2-0.1h0.1l0.3 0.4-0.1 0.2-0.2 0.1zm-0.6 8l-0.3-0.5v-0.2l0.2-0.1q0.4 0.1 0.5 0.4l-0.1 0.3-0.2 0.1zm0.3-2.7l0.2-0.2q0.5 0.3 0.4 0.4v0.3l-0.2 0.1q-0.6-0.1-0.4-0.6zm1.4-6.4q0-0.2 0.2-0.1 0.5 0.2 0.4 0.3v0.4q-0.1 0.1-0.3 0.1-0.4-0.3-0.3-0.7zm-0.5 8.6l-0.2-0.4 0.1-0.4 0.1-0.1q0.6 0.2 0.5 0.8l-0.2 0.2zm1.2-7l0.1-0.1 0.1-0.1h0.3q0.3 0.3 0.2 0.7l-0.3 0.2q-0.5-0.1-0.4-0.7zm-0.7 8l0.1-0.3 0.1-0.1q0.8 0.3 0.6 0.9l-0.2 0.2h-0.3q-0.4-0.3-0.3-0.7zm0.5-2.2v-0.1q0.1-0.3 0.4-0.2 0.5 0.4 0.4 0.9v0.1l-0.2 0.1-0.4-0.1q-0.3-0.3-0.2-0.7zm0.7 1.4l0.3-0.1h0.2q0.5 0.2 0.4 0.7v0.1l-0.5 0.3q-0.6-0.2-0.4-1zm0.8 1.7v-0.1l0.3-0.2 0.3 0.1 0.3 0.4-0.1 0.3q-0.1 0.4-0.3 0.4l-0.2-0.1q-0.4-0.3-0.3-0.8zm0.4-1.9l0.1-0.3 0.2-0.2h0.2q0.5 0.1 0.4 0.7l-0.1 0.3q-0.2 0.2-0.4 0.2-0.2-0.1-0.4-0.7zm0.7 1.3q0.3-0.3 0.5-0.3 0.6 0.2 0.6 1-0.2 0.3-0.3 0.3l-0.5-0.1q-0.4-0.4-0.3-0.9zm0.8 1.7v-0.2l0.3-0.2 0.4 0.1q0.4 0.4 0.3 0.8l-0.1 0.3-0.2 0.1h-0.2q-0.7-0.3-0.5-0.9zm0.5-2.1v-0.3l0.3-0.1h0.1q0.7 0.2 0.6 0.8l-0.1 0.3-0.2 0.2-0.4-0.1q-0.4-0.4-0.3-0.8zm0.7 1.4q0.2-0.3 0.4-0.3h0.1q0.5 0.1 0.7 0.7l-0.1 0.1q-0.2 0.7-0.8 0.5-0.4 0-0.3-1zm1.9 1.1q0.2-0.4 0.3-0.3l0.5 0.1q0.4 0.2 0.5 0.9-0.1 0.4-0.6 0.5-0.8-0.2-0.7-1.2zm2.2-0.7h-0.1q0.5 0.3 0.3 0.8v0.4l-0.1 0.1h0.3l0.5 0.4 0.1-0.6 0.4-0.3h-0.5q-0.4-0.1-0.8-0.8zm1.1 2.7l-0.1 0.2 0.3 0.1 0.4 0.2v-0.4l0.3-0.4-0.1 0.1-0.2-0.1-0.6-0.3zm0.6 1.8h0.1l0.1-0.1 0.1 0.1 0.5 0.3h0.1-0.1l0.1-0.4 0.2-0.4-0.6-0.1-0.1-0.1h-0.1q-0.1 0.5-0.3 0.7zm0.7-2.6l-0.1 0.4h0.2l0.5 0.3 0.1-0.5 0.1-0.1v-0.1l-0.7-0.3zm0.6 2l0.7 0.2 0.1-0.6-0.5-0.2q-0.1 0.4-0.3 0.6zm1 0.9l-0.1 0.6 0.5 0.2 0.1-0.3 0.1-0.1v-0.1q-0.4-0.1-0.6-0.3zm0.5-2.1l-0.2 0.6 0.6 0.2 0.1-0.5zm0.6 2.1h0.1l0.4 0.3v-0.1-0.2l0.1-0.2v-0.1l-0.4-0.1zm0.6-2.6l-0.1 0.4 0.5 0.3-0.1-0.1 0.1-0.2 0.1-0.1zm0.3 3.7l-0.1 0.5h0.3l0.1-0.2q0-0.1-0.3-0.3zm0.4-2.1l-0.1 0.4 0.4 0.2 0.1-0.4zm0.5-2.1l-0.1 0.3 0.3 0.2 0.1-0.4zm0.3 3.9l0.1 0.2h0.1l0.1-0.2-0.3-0.1zm0.5-2.2l-0.1 0.2 0.3 0.1 0.1-0.3zm-20.8-25.1l3.7-16.6q0.2-1 2.9-1.9 3-1.5 3.7-1.3h0.1q5 1.7 4.3 4.9l-0.9 3.9q-0.4 1.9-2.4 1.5l-0.7 3 10.4 5.4 0.7-3.1q-1.8-1.4-1.4-3.3l0.9-3.9q0.4-1.7 2.1-1.6h0.1q3.2 1.4 3.7 2.2 3.6 7.2 3.5 7.9v0.4l-1.9 8.5q-0.3 1.1-2.8 1.9-3.1 1.5-3.8 1.4l-0.4-0.1-14.4-7.4q-4.2 1.8-4.6 1.7h-0.3q-2.1-0.5-2.5-3.5zm2.4 2.4l0.2 0.1q0.4 0 4.7-1.9l14.7 7.7q0.5 0.1 3.9-1.5 1.9-0.7 2-1.3l1.9-8.2q0.1-0.8-1.4-3.6-1.9-4.4-2.5-4.5-2-1.1-2.5-1.2-0.8-0.2-1.3 1l-0.8 3.7q-0.4 1.7 1.5 2.8l-1 4.6-0.2 0.2-11.9-6.3 1-4.7 0.1-0.1 0.9 0.3q0.9 0.2 1.3-0.9l0.8-3.8q0.4-2.1-2.3-3.1l-1.1-0.5q-0.5-0.1-3 1.1-2.7 1.1-2.8 1.5l-3.6 16.3q0 2 1.4 2.3zm-0.1-1.4l-0.2-0.3 3.5-15.9q0.9-0.5 4.9-2.2h0.1q2.1 1 2.1 1.2l-1 4.1q0 0.2-0.3 0.2l-1.6-0.9-1.6 7.4 14.5 7.6 1.6-7.3q0-0.1-1.8-1l-0.1-0.1 1-4.2 0.3-0.2q2.4 1.1 2.3 1.7l2.6 5.5-1.8 8.1-4.8 2.1-15-7.7h-0.1l-4.5 2zm3.9-15.9l-3.4 15.1h0.1l4.2-1.8 0.7 0.3-0.1-0.2 0.1-0.4 0.2-0.1q0.6 0.1 0.4 0.7v0.1q0 0.1-0.2 0.1l-0.1 0.1 1.6 0.7-0.1-0.6 0.3-0.1h0.2q0.6 0.1 0.4 0.7l-0.3 0.3v0.1l1.3 0.6 0.1-0.6q0.2-0.3 0.4-0.2 0.6 0.1 0.6 1l-0.2 0.3 1.1 0.6v-0.6q0.2-0.3 0.4-0.3h0.1q0.5 0.1 0.7 0.6v0.2q-0.1 0.2-0.4 0.5l1.1 0.5v-0.1-0.3q0.2-0.4 0.3-0.4l0.6 0.1q0.3 0.3 0.4 1l-0.2 0.3 0.8 0.4 0.1-0.4q0.1-0.5 0.7-0.4 0.7 0.5 0.6 1.3l-0.2 0.2 0.8 0.4v-0.4q0.2-0.5 0.8-0.4l0.4 0.2 0.1-0.4 0.2-0.4-0.7-0.1v-0.1h-0.1q-0.2 0.9-0.7 0.8-0.8-0.2-0.7-1.3 0.2-0.3 0.5-0.4l0.2 0.1 0.4 0.2v-0.4l0.3-0.3q-0.6-0.1-0.9-0.5v0.7q-0.2 0.3-0.4 0.3h-0.2q-0.8-0.2-0.6-1.1v-0.3l0.3-0.2 0.3 0.1q0.3 0 0.5 0.3v-0.1q0.1-0.3-0.6-0.6-0.2 0.4-0.7 0.2-0.5 0-0.7-0.9l-0.7-0.4q-0.1 0.3-0.3 0.3l-0.3-0.1q-0.4-0.1-0.7-0.9l-0.8-0.4q0 0.2-0.2 0.2l-0.5-0.1q-0.1-0.1-0.4-0.7l-1-0.4-0.2 0.1h-0.1q-0.4-0.1-0.7-0.7l-1-0.5-0.2 0.1q-0.3 0-0.8-0.6l-1-0.6h-0.3q-0.5-0.1-0.3-0.6 0-0.2 0.2-0.1l0.3-1.5q-0.1-0.3-0.1-0.5l0.3-0.2 0.3-1.4-0.1-0.4 0.3-0.4 0.2-1.1-0.1-0.7 0.3-0.3 0.3-1.2 0.1-0.1v-0.1q-0.3 0-0.2-0.5l0.2-0.1 0.3 0.1q0.2 0 0.1 0.6l1.3 0.6 0.3-0.4 0.2-1.2v-0.6-0.1l0.2-0.2 0.2-0.8-0.4-0.1q0 0.3-0.3 0.3-0.4-0.1-0.4-0.8l-0.5-0.2zm-2.6 13.6l-0.1-0.2v-0.1l0.2-0.1 0.1 0.2v0.2zm0.5-2.1l-0.2-0.2 0.1-0.1 0.1-0.1 0.1 0.3v0.1zm0.5-2.1l-0.1-0.2 0.1-0.1 0.2 0.2-0.1 0.1zm0.5-2.1l-0.1-0.2 0.2-0.1 0.1 0.2v0.1zm0.4-2.1l-0.1-0.1v-0.1l0.2-0.1 0.2 0.2-0.2 0.2zm0.5-2.2l-0.2-0.2h0.1l0.1-0.2 0.2 0.2-0.1 0.3zm0.5-2.2l-0.1-0.2 0.2-0.1 0.1 0.2-0.1 0.2zm-1.6 12.2l-0.1-0.2v-0.2l0.2-0.1h0.1l0.1 0.3v0.1l-0.2 0.2zm0.5-2.2l-0.2-0.3v-0.1l0.2-0.1q0.3 0.2 0.3 0.3v0.1l-0.2 0.1zm0.4-2.1l-0.1-0.3v-0.1l0.2-0.1 0.1 0.1 0.1 0.2v0.1l-0.2 0.1zm0.5-2.1l-0.2-0.3v-0.1l0.2-0.1h0.1l0.2 0.3-0.1 0.2zm0.5-2l-0.2-0.3v-0.2l0.2-0.1h0.1l0.2 0.3-0.1 0.2zm0.4-2.2l-0.2-0.3 0.1-0.1 0.2-0.1 0.2 0.3v0.1l-0.2 0.1zm0.5-2.1l-0.2-0.3v-0.1l0.2-0.1q0.3 0.1 0.3 0.2l-0.1 0.2-0.1 0.1zm-1.8 11.7q0-0.1 0.2-0.1 0.3 0.2 0.3 0.4v0.1l-0.2 0.2-0.2-0.1q-0.2-0.1-0.1-0.5zm0.4-2.1q0.1-0.2 0.3-0.1 0.4 0.2 0.3 0.6-0.1 0.1-0.3 0.1-0.4-0.2-0.3-0.6zm0.5-2.2h0.1 0.3q0.2 0.2 0.1 0.6l-0.1 0.1-0.2-0.1q-0.3-0.2-0.2-0.6zm0.7-1.5l-0.3-0.4 0.1-0.1 0.2-0.1h0.1l0.2 0.4v0.1l-0.2 0.1zm0.5-2.1l-0.2-0.4v-0.1l0.2-0.1h0.1l0.3 0.4-0.1 0.1-0.2 0.1zm0.3-2.6q0.1-0.2 0.3-0.1 0.3 0.2 0.3 0.4v0.1l-0.3 0.2q-0.4-0.2-0.3-0.6zm0.5-2.2l0.2-0.1q0.4 0.1 0.3 0.7 0 0.1-0.2 0.1-0.4-0.2-0.3-0.7zm-1.4 12.8l-0.3-0.4v-0.2l0.3-0.1q0.4 0.2 0.4 0.4l-0.1 0.3-0.2 0.1zm2.6-13.4l0.2-0.1h0.1q0.4 0.1 0.4 0.4l-0.1 0.3-0.2 0.1-0.2-0.1q-0.3-0.2-0.2-0.6zm-1.6 12.5v-0.3l0.3-0.2q0.5 0.1 0.4 0.7v0.1q0 0.2-0.4 0.1-0.3-0.1-0.3-0.4zm2.6-10.2l-0.3-0.4 0.1-0.3 0.2-0.2 0.2 0.1 0.3 0.5-0.1 0.2-0.2 0.2zm-1.9 11.5v-0.2q0-0.2 0.4-0.2 0.5 0.5 0.4 0.9l-0.3 0.2h-0.3q-0.3-0.3-0.2-0.7zm1.1-0.7l0.3-0.2 0.4 0.1 0.3 0.4v0.3l-0.5 0.3-0.2-0.1q-0.2 0-0.3-0.8zm0.8 1.9v-0.4l0.3-0.2 0.2 0.1q0.5 0.1 0.4 0.6l-0.1 0.3q-0.2 0.3-0.4 0.2-0.2 0-0.4-0.6zm1.2-0.9l0.3-0.2h0.2q0.6 0.2 0.5 0.9 0 0.3-0.4 0.3-0.7-0.1-0.6-1zm0.7 1.7l0.1-0.2 0.3-0.2h0.1q0.7 0.3 0.5 0.9v0.3l-0.2 0.1-0.5-0.1q-0.4-0.4-0.3-0.8zm1.2-0.7q0.2-0.3 0.6-0.3 0.7 0.3 0.6 0.9-0.1 0.3-0.6 0.5h-0.1q-0.7-0.3-0.5-1.1zm0.8 1.6q0.2-0.3 0.5-0.2 0.8 0.3 0.6 0.8v0.1q-0.1 0.6-0.7 0.5-0.5-0.2-0.4-1.2zm1.1-0.5q0.3-0.3 0.4-0.3h0.3q0.6 0.2 0.6 1.1-0.1 0.5-0.6 0.4-0.7-0.2-0.7-1.2zm0.8 1.6v-0.2l0.4-0.2h0.2q0.8 0.4 0.6 1.1l-0.1 0.3-0.2 0.2h-0.3q-0.8-0.2-0.6-1.2zm3.6-0.1v0.2l0.2-0.1 0.5 0.4v-0.1q0.1-0.3-0.6-0.4zm0.8 1.6q0.4 0.1 0.6 0.3l0.2-0.6-0.5-0.2q-0.1 0.3-0.3 0.5zm2.8-12.7v0.1l0.6 0.2 0.1-0.4-0.5-0.3-0.1 0.3zm-3.1 14.3l-0.1 0.6 0.6 0.3v-0.1l0.1-0.6q-0.4 0-0.6-0.2zm2.8-12.8l-0.1 0.7 0.6 0.3 0.1-0.5q0-0.2-0.6-0.5zm-1.5 12.2l-0.2 0.6 0.6 0.3v-0.4l0.1-0.2zm0.3-1.6l0.1 0.2 0.4 0.1v-0.2l-0.5-0.2zm2.4-8.3l0.1-0.4-0.5-0.3v0.3q-0.1 0.2 0.4 0.4zm0.1-2.8l-0.2 0.7h0.4l0.1 0.1 0.1 0.1 0.2-0.6q-0.4-0.1-0.6-0.3zm-1.7 12.6v0.1l0.5 0.3-0.1-0.1 0.1-0.2 0.1-0.1v-0.1l-0.5-0.2 0.1 0.1-0.1 0.2zm0.6-2.4l-0.1 0.3 0.5 0.3-0.1-0.2 0.2-0.3h-0.1l-0.3-0.1zm0.5-2.1l-0.2 0.3 0.5 0.3v-0.3l0.1-0.2h-0.2l-0.2-0.2zm0.5-2.2l-0.2 0.5 0.5 0.2v-0.3l0.1-0.2h-0.1zm0.5-2.1l-0.2 0.4 0.5 0.3v-0.1-0.3l0.1-0.1zm0.5-2.1l-0.2 0.4 0.5 0.3v-0.3l0.1-0.2h-0.1zm-1.1 10.2l-0.1 0.3 0.4 0.2 0.1-0.4zm0.4-2.1v0.4l0.3 0.1 0.1-0.3zm0.5-2.2l-0.1 0.4 0.4 0.2 0.1-0.4zm0.4-2.2l-0.1 0.5 0.4 0.2 0.1-0.3q0-0.2-0.4-0.4zm0.5-2l-0.1 0.4 0.4 0.1v-0.4zm-0.6 8.1l-0.1 0.2 0.3 0.1 0.1-0.3zm0.5-2.1l-0.1 0.2 0.3 0.2v-0.2l-0.1-0.2zm0.5-2l0.1 0.2 0.1 0.1 0.1-0.2-0.2-0.2h-0.1zm0.5-2.1l0.1 0.1 0.1 0.1 0.1-0.3-0.3-0.1zm-21.7-20.3v-0.6l1.8-8.3q0.6-1.7 1.9-1.5l0.4 0.1q1 0.3 7.6 3.9l0.7-3.1q-7.2-3.6-8-4.3-1.1-1.5-0.8-2.9l0.9-4.3q0.3-1.4 2.2-1.2 0.9 0.3 21.9 11.3 3.4 1.6 2.9 4.1l-1 4.4q-0.3 1.4-2.2 1.2l-7.6-3.9-0.7 2.9q0 0.2 1.1 0.7v-0.1q0.8-1.2 1.7-1l0.5 0.1q0.7 0.2 4.8 2.5 1.5 1.6 1.2 2.9l-1.4 6.6q-0.7 1.5-2 1.2l-0.5-0.1-18-9.4q-4.1 2-4.9 1.8h-0.2q-1.7-0.4-2.3-3zm2.3 1.9l0.2 0.1q0.4 0 4.7-1.9l18.5 9.6q1.1 0.1 1.3-0.7l1.4-6.3q0.4-1.8-3.2-3.2-1.6-1-2.1-1.1-1-0.2-1.5 1.4h-0.1q-2.6-1.3-2.5-1.5l1-4.6 0.2-0.2 8.1 4.3q1.1 0.1 1.4-0.9l0.9-4.1q0.4-1.9-3.1-3.2l-20.8-10.9q-0.9-0.2-1.4 0.9l-0.9 4.1q-0.4 1.9 3.4 3.3l5.6 3.1-1 4.7h-0.1v0.1l-8.1-4.2h-0.2q-1.1-0.1-1.3 0.7l-1.8 8.2q0 2 1.4 2.3zm-0.1-1.4l-0.2-0.2 1.8-8.1q0.1-0.2 0.4-0.1l9.1 4.7 1.6-7.4-9.3-4.8-0.1-0.1 0.9-4.2q0.1-0.2 0.4-0.1 20.9 10.8 22.7 11.9l-1 4.1q0 0.2-0.3 0.2l-9-4.8-1.7 7.4 5.1 2.7 0.4-1.7q0-0.1 0.3-0.2l4 2.2-1.4 6.2-0.2 0.1-18.8-9.7h-0.1l-4.4 2zm2-7.8l-1.5 7 4.3-1.8 0.6 0.3-0.1-0.2 0.1-0.4 0.2-0.1q0.6 0.1 0.5 0.7v0.1q-0.1 0.1-0.3 0.1v0.1l1.5 0.7v-0.6l0.3-0.2q0.7 0.1 0.6 0.8l-0.3 0.3v0.1l1.3 0.6v-0.5-0.1l0.4-0.2h0.1q0.7 0.3 0.5 0.9l-0.2 0.4 1.2 0.6-0.1-0.6q0.3-0.3 0.4-0.3h0.1q0.6 0.1 0.7 0.6v0.2q-0.1 0.2-0.3 0.5l1 0.5 0.1-0.1v-0.3q0-0.3 0.4-0.4 0.8 0.2 0.8 1.1l-0.1 0.3 0.8 0.4 0.1-0.4q0.1-0.5 0.5-0.4l0.5 0.4h0.1v-0.6q0.2-0.3 0.5-0.4l0.2 0.1 0.5 0.2v-0.4l0.2-0.3q-0.5-0.1-0.8-0.5v0.7q-0.2 0.4-0.7 0.3-0.8-0.3-0.6-1l0.1-0.4 0.3-0.2 0.3 0.1 0.5 0.2q0-0.4-0.8-0.6-0.1 0.4-0.4 0.3-1-0.5-0.8-1.2l0.1-0.4q-1-0.2-0.8-1.2 0.2-0.3 0.4-0.3h0.2l0.4 0.3 0.2-0.9-0.2-0.1q-0.6-0.1-0.5-1.1 0.2-0.4 0.4-0.4l0.1 0.1 0.5 0.2 0.2-0.7q0-0.1-0.6-0.5l-0.2-0.8q0.2-0.4 0.6-0.4l0.5 0.3 0.2-0.8q-1-0.4-0.8-1.2 0.2-0.4 0.3-0.4l0.4 0.1 0.4 0.2q0.2-0.9 0.4-0.8l0.4 0.1q0.7 0.1 0.6 1.2l0.6 0.2 0.1-0.1 0.1-0.4q-1-0.2-0.8-1.1v-0.3l0.3-0.2 0.3 0.1q0.3 0 0.5 0.4l0.1-0.1-0.1-0.6q0.3-0.4 0.8-0.3l0.4 0.2v-0.1-0.3h0.1l-0.7-0.4q-0.1 0.6-0.5 0.5l-0.2-0.1q-0.7-0.1-0.6-1.1 0-0.1-0.7-0.3-0.1 0.4-0.4 0.4h-0.3q-0.6-0.2-0.6-1.2l-0.7-0.3q-0.1 0.4-0.4 0.4l-0.4-0.1q-0.5-0.3-0.4-1l-0.9-0.4v0.1l-0.3 0.3h-0.1q-0.8-0.3-0.7-1l-0.9-0.4h-0.1q0 0.3-0.3 0.3-0.5-0.1-0.6-0.9l-1.1-0.5q-0.1 0.3-0.3 0.3-0.5-0.1-0.5-0.8-0.7-0.4-1.3-0.6-0.1 0.3-0.2 0.2h-0.2q-0.1 0-0.2-0.6l-1.5-0.7q0 0.2-0.2 0.2-0.2-0.1-0.1-0.5h-0.2l-0.8 3.3q0 0.1 1.1 0.7 0.1-0.4 0.3-0.4 0.2 0.1 0.2 0.7l1.4 0.7q0.1-0.5 0.3-0.5 0.5 0.1 0.4 0.8l1.3 0.6q0.1-0.5 0.4-0.4 0.3 0.1 0.6 1l0.9 0.4q0.1-0.5 0.3-0.4h0.1q0.6 0.1 0.6 1l0.9 0.4 0.1-0.1q0.1-0.4 0.3-0.4l0.4 0.1q0.4 0.4 0.3 0.8l-0.1 0.2q-0.2 0.3-0.5 0.2l-0.2 0.9q0.4 0.4 0.3 0.8l-0.1 0.3q-0.2 0.3-0.5 0.2l-0.2 0.9q0.4 0.1 0.3 0.7v0.3q-0.1 0.2-0.5 0.1l-0.3 1q0.4 0.1 0.4 0.7l-0.1 0.3q0 0.3-0.5 0.2l-0.2 0.9 0.3 0.6v0.3q-0.2 0.3-0.6 0.2-0.3 0-0.5-0.6l-1-0.5-0.2 0.1h-0.2q-0.3-0.1-0.6-0.6l-1-0.6-0.5 0.1q-0.5-0.7-1.5-1.2h-0.4q-0.4-0.4-3.4-1.9zm-0.8 5.5l-0.1-0.2v-0.1l0.2-0.1 0.2 0.3-0.2 0.1zm0.5-2.1l-0.2-0.2 0.1-0.1 0.1-0.1 0.1 0.2v0.2zm0.5-2.1l-0.1-0.2 0.1-0.2 0.2 0.2-0.1 0.2zm2.4-10.6l-0.1-0.2 0.1-0.1 0.2 0.2-0.1 0.1zm-2.2 14.2v-0.2l0.2-0.1h0.1l0.2 0.3-0.1 0.1-0.2 0.2q-0.2-0.2-0.2-0.3zm0.6-1.9l-0.1-0.3v-0.1l0.2-0.1 0.2 0.3v0.1l-0.2 0.1zm2.8-12.7l-0.2-0.3 0.1-0.1 0.1-0.1h0.2l0.1 0.2v0.2l-0.2 0.1zm-2.1 14.4l-0.2-0.4v-0.2l0.2-0.1h0.2l0.2 0.4v0.2l-0.2 0.1zm0.3-2.7q0-0.1 0.2-0.1 0.3 0.2 0.3 0.4v0.2l-0.3 0.1q-0.3-0.2-0.2-0.6zm2.3-10.6q0-0.1 0.3-0.1 0.3 0.2 0.2 0.6 0 0.2-0.2 0.1-0.4-0.2-0.3-0.6zm-1.4 12.8l-0.3-0.4 0.1-0.2 0.2-0.2q0.5 0.3 0.4 0.4v0.3l-0.2 0.2zm2.5-13.4l0.2-0.1 0.3 0.1 0.2 0.2-0.1 0.3-0.2 0.2-0.2-0.1q-0.3-0.2-0.2-0.6zm-1.6 12.5l0.1-0.4 0.2-0.1q0.6 0.1 0.4 0.7v0.1q0 0.2-0.3 0.1-0.3-0.2-0.4-0.4zm2.3-10.7l0.1-0.3 0.3-0.1q0.4 0.1 0.4 0.7v0.1q-0.1 0.2-0.4 0.1-0.3-0.2-0.4-0.5zm-1.6 12l0.1-0.2 0.2-0.1q0.7 0.3 0.6 0.9l-0.3 0.2-0.3-0.1q-0.4-0.3-0.3-0.7zm2.8-12.7l0.1-0.2 0.3-0.2q0.4 0.3 0.5 0.8v0.2l-0.2 0.2-0.5-0.1q-0.2-0.1-0.2-0.7zm-1.6 12.1q0.2-0.3 0.3-0.3l0.2 0.1q0.6 0.1 0.5 0.6l-0.1 0.1-0.4 0.3h-0.3q-0.2-0.1-0.2-0.8zm2.4-10.6q0.1-0.3 0.3-0.3l0.1 0.1q0.4 0.1 0.5 0.5v0.2l-0.5 0.3h-0.2q-0.2-0.1-0.2-0.8zm-1.6 12.2v-0.1l0.3-0.2h0.1q0.4 0.1 0.5 0.4l-0.1 0.3q0 0.4-0.3 0.4h-0.3q-0.2-0.1-0.2-0.8zm2.8-12.7v-0.2l0.3-0.2 0.2 0.1q0.5 0.1 0.4 0.6l-0.1 0.3q-0.2 0.3-0.4 0.2-0.5-0.3-0.4-0.8zm-1.6 12l0.3-0.2q0.8 0.3 0.7 1-0.1 0.2-0.5 0.3-0.7-0.2-0.5-1.1zm2.3-10.6l0.3-0.2 0.2 0.1q0.6 0.1 0.5 0.9 0 0.2-0.4 0.3-0.7-0.2-0.6-1.1zm-1.6 12.4l0.1-0.3 0.2-0.1h0.4q0.4 0.4 0.3 0.8l-0.1 0.3-0.1 0.2-0.3-0.1q-0.6-0.2-0.5-0.8zm2.8-12.8l0.1-0.2 0.2-0.2 0.2 0.1q0.7 0.2 0.5 0.8v0.3q-0.2 0.2-0.5 0.1-0.6-0.3-0.5-0.9zm-1.6 12.1q0.2-0.3 0.4-0.3 0.9 0.2 0.7 0.8 0 0.4-0.5 0.6l-0.1-0.1q-0.7-0.2-0.5-1zm0.5-2.2q0-0.2 0.4-0.3 0.9 0.3 0.7 0.9v0.2q-0.3 0.4-0.7 0.3h-0.2q-0.2-0.1-0.2-1.1zm0.4-2q0.2-0.4 0.3-0.4l0.3 0.1q0.7 0.2 0.6 0.8-0.1 0.6-0.8 0.5l-0.1-0.1q-0.3 0-0.3-0.9zm0.5-2.2q0.2-0.3 0.4-0.3h0.1q0.6 0.2 0.7 0.7v0.1q-0.3 0.7-0.8 0.6-0.5-0.4-0.4-1.1zm0.5-2.1q0.2-0.3 0.4-0.3h0.1q0.5 0.1 0.7 0.7l-0.1 0.1q-0.2 0.7-0.8 0.5-0.4 0-0.3-1zm0.4-2.1q0.2-0.4 0.6-0.3 0.7 0.3 0.6 0.8-0.1 0.4-0.6 0.6l-0.1-0.1q-0.6-0.2-0.5-1zm-1.6 12.3q0.1-0.5 0.7-0.4 0.6 0.3 0.5 0.9-0.2 0.6-0.8 0.5-0.5-0.4-0.4-1zm0.5-2.3q0.2-0.3 0.6-0.2 0.3 0 0.6 0.7v0.2q-0.2 0.6-0.8 0.5-0.5-0.1-0.4-1.2zm0.5-1.9v-0.2l0.4-0.2h0.2q0.4 0.1 0.6 0.6l-0.1 0.3q-0.1 0.6-0.7 0.4-0.5-0.1-0.4-0.9zm0.4-2.1l0.1-0.2 0.3-0.3 0.3 0.1q0.4 0.1 0.6 0.6l-0.1 0.5-0.5 0.3-0.4-0.1q-0.4-0.4-0.3-0.9zm0.5-2.1q0.1-0.6 0.6-0.4 0.7 0.2 0.6 0.8v0.1q-0.2 0.5-0.7 0.4l-0.2-0.1q-0.4-0.4-0.3-0.8zm0.5-2.3q0.2-0.4 0.5-0.3 0.8 0.3 0.7 0.9h-0.1q-0.1 0.6-0.7 0.5h-0.1q-0.5-0.4-0.3-1.1zm0.4-1.9l0.1-0.3 0.3-0.2 0.3 0.1q0.4 0 0.6 0.6l-0.1 0.2q-0.1 0.6-0.7 0.5-0.6-0.3-0.5-0.9zm-1.6 11.9q0.2-0.3 0.3-0.3l0.3 0.1q0.7 0.1 0.7 1.1-0.2 0.3-0.5 0.4-1-0.4-0.8-1.3zm2.4-10.6q0.2-0.3 0.4-0.3l0.2 0.1q0.6 0.1 0.6 1.1-0.1 0.4-0.6 0.3-0.7-0.1-0.6-1.2zm-1.6 12.2v-0.1l0.4-0.2h0.4q0.5 0.5 0.4 1l-0.1 0.4-0.3 0.2-0.2-0.1q-0.8-0.2-0.6-1.2zm2.8-12.5v-0.3l0.4-0.3 0.2 0.1q0.6 0.1 0.6 1l-0.1 0.4-0.3 0.1h-0.3q-0.6-0.2-0.5-1zm-0.8 14.4v0.6l-0.1 0.2 0.7 0.3 0.1-0.4 0.1-0.3h-0.2q-0.2 0-0.6-0.4zm2.8-12.1l-0.1 0.2h0.2l0.5 0.3v-0.1-0.2l0.3-0.5q-0.7-0.1-0.8-0.4zm1.2-0.5l-0.2 0.2h0.3l0.5 0.3 0.3-0.8-0.3-0.1-0.5-0.2v0.1zm-2.7 12.2l-0.2 0.6 0.2 0.1q0.3 0 0.5 0.3l0.1 0.1-0.1-0.1 0.1-0.4 0.2-0.4-0.6-0.1-0.1-0.1zm0.4-1.7l-0.2 0.3 0.1-0.1 0.2 0.1 0.5 0.2q0-0.1-0.6-0.5zm2-8.9l-0.1 0.4 0.5 0.3 0.3-0.5zm-1.6 12.2l-0.2 0.6 0.7 0.3 0.1-0.6q-0.4-0.1-0.6-0.3zm0.3-1.4q0.4 0.1 0.6 0.3l0.2-0.7-0.5-0.2q-0.1 0.4-0.3 0.6zm2.3-10.6q0.5 0.1 0.7 0.3l0.1-0.7-0.4-0.1v-0.1h-0.1q-0.1 0.4-0.3 0.6zm0.7-2.6l-0.1 0.5q0.3 0 0.5 0.2l0.1-0.4zm-2 14.1l-0.1 0.6 0.5 0.2 0.1-0.5zm0.4-1.6l0.1 0.2h0.4v-0.1l-0.5-0.2zm2.4-8.4l0.1-0.3-0.5-0.3-0.1 0.3q0 0.2 0.5 0.3zm0-2.7l-0.1 0.6 0.6 0.3q0.2-0.7-0.5-0.9zm-2.1 14.8l0.5 0.3v-0.1-0.1-0.1l0.1-0.2h-0.1l-0.4-0.2 0.1 0.1-0.1 0.2zm0.6-2.5l-0.1 0.4 0.5 0.3v-0.4h0.1zm0.4-2.2l-0.1 0.5 0.5 0.2-0.1-0.2 0.2-0.2h-0.1zm1.9-8.5l-0.2 0.4 0.5 0.3-0.1-0.1 0.1-0.2 0.1-0.1v-0.1zm0.4-1.9l-0.1 0.3 0.5 0.2-0.1-0.1v-0.1l0.1-0.1 0.1-0.1-0.5-0.1zm-2 14.1l-0.1 0.4 0.4 0.2v-0.3q0.1-0.1-0.3-0.3zm0.5-2.1l-0.1 0.4 0.4 0.2v-0.4zm1.9-8.5v0.2l0.3 0.2 0.1-0.2zm0.4-2.2v0.4l0.3 0.2 0.1-0.4zm-2.1 14.5l0.1 0.2h0.2v-0.2l-0.2-0.1zm0.4-2.2l0.1 0.2h0.2l0.1-0.2-0.3-0.1zm0.5-2.2l-0.1 0.2 0.3 0.1 0.1-0.3zm1.8-8.4v0.2l0.3 0.1v-0.3zm0.5-2.1v0.2l0.2 0.2 0.1-0.4zm-22.3-17.2l-0.1-0.6 4.6-20.5q0.3-1.4 2.1-1.2 4 1.9 6.9 3.6 1.5 1.5 1.1 3.3 0.4-0.1 0.9 0 5.8 2.6 5.6 3.4h0.1q0.6-1.9 2.2-1.5 0.7 0.1 6.9 3.6 1.4 1.6 1.1 3l-3.6 16.3q-0.6 1.6-2 1.3l-0.4-0.1-18.1-9.4q-4 1.9-4.9 1.8l-0.1-0.1q-1.8-0.4-2.3-2.9zm2.3 1.9h0.2q0.4 0.1 4.6-1.8l18.6 9.6q1.1 0 1.3-0.8l3.5-16.1q0.4-1.9-3-3.2-3.5-2-4.2-2.1-0.8-0.2-1.3 1l-0.8 3.6q-0.3 1.6 1.1 2.6 0.4 0.1 0.4 0.3l-1 4.6-0.2 0.1q-2.6-1.3-2.6-1.4l1.9-8.4q0.4-1.9-3-3.2-1.7-1-2.3-1.1h-0.1q-0.8-0.2-1.3 0.9l-1.8 8.2-0.1 0.1v0.1q-2.7-1.3-2.6-1.6l1-4.5 0.1-0.1v-0.1l0.9 0.4q0.8 0.2 1.2-0.9l0.9-3.9q0.4-1.6-1.4-2.6l-5.7-2.9q-0.9-0.2-1.3 0.9l-4.4 20q0 2 1.4 2.3zm-0.1-1.4l-0.2-0.3 4.4-19.9q0-0.2 0.4-0.2 5.8 2.9 5.7 3.2l-0.9 4.1-0.2 0.2-1.7-0.9-1.6 7.4 5.1 2.7 2.2-9.7q0-0.2 0.2-0.1 4.1 2 4 2.2l-2.1 9.8 5.1 2.6 1.6-7.2q0-0.1-1.9-1.1l1-4.2q0-0.3 0.3-0.2 5.5 2.8 5.8 3.1l-3.6 16.1-0.1 0.1-18.9-9.6v-0.1l-4.5 2zm4.7-19.7l-4.2 19h0.1l4.2-1.8 0.7 0.3-0.1-0.3 0.1-0.3 0.1-0.2q0.7 0.2 0.5 0.8v0.1q0 0.1-0.3 0.1l1.5 0.8v-0.7l0.4-0.1q0.7 0.1 0.5 0.7l-0.3 0.4 1.4 0.7-0.1-0.5 0.1-0.1 0.3-0.2h0.1q0.7 0.3 0.6 0.9l-0.2 0.3 1.1 0.6v-0.5q0.2-0.4 0.4-0.4v0.1q0.6 0.1 0.8 0.6l-0.1 0.2q0 0.2-0.3 0.4l1.1 0.6v-0.2-0.3q0.1-0.3 0.5-0.4 0.7 0.2 0.8 1.2l-0.2 0.3 0.8 0.4 0.1-0.4q0.1-0.5 0.6-0.4l0.5 0.3 0.1-0.5q0.1-0.3 0.5-0.4l0.2 0.1 0.4 0.2v-0.1-0.4l0.3-0.2q-0.6-0.2-0.9-0.5v0.7q-0.2 0.3-0.6 0.2-0.8-0.3-0.7-1l0.1-0.4 0.3-0.1h0.3l0.5 0.3q0-0.5-0.7-0.6-0.1 0.3-0.5 0.3-0.9-0.5-0.8-1.3l0.1-0.3q-1-0.3-0.8-1.3 0.3-0.3 0.4-0.3l0.3 0.1 0.4 0.2 0.2-0.9h-0.2q-0.6-0.2-0.6-1.1 0.3-0.4 0.4-0.4h0.2l0.5 0.3 0.1-0.8q0.1-0.1-0.6-0.4l-0.1-0.8q0.2-0.5 0.5-0.4l0.5 0.3 0.2-0.9q-0.9-0.3-0.8-1.2 0.2-0.3 0.4-0.3l0.3 0.1 0.4 0.1 0.2-0.9h-0.2q-0.8-0.3-0.6-1v-0.1l0.1-0.1v-0.1l-0.8-0.4-0.1 0.4q-0.1 0.2-0.5 0.1-0.4-0.1-0.7-0.7l0.1-0.2 0.1-0.1-0.4-0.3-0.2 0.6 0.4 0.6-0.1 0.5q-0.2 0.3-0.6 0.2l-0.1 0.8q0.3 0.5 0.3 0.8l-0.1 0.3q-0.2 0.3-0.5 0.2l-0.2 1q0.3 0 0.3 0.7l-0.1 0.3q0 0.2-0.5 0.1l-0.2 1q0.4 0.1 0.3 0.7l-0.1 0.3q0 0.2-0.5 0.1l-0.2 1 0.4 0.5-0.1 0.4q-0.2 0.3-0.6 0.2-0.3-0.1-0.5-0.7l-0.9-0.4-0.3 0.1-0.1-0.1q-0.4 0-0.6-0.6l-1-0.5h-0.5q-0.5-0.6-1.5-1.1h-0.5q-0.4-0.2-0.3-0.6 0.1-0.2 0.3-0.1l0.3-1.5q-0.1-0.3-0.1-0.6l0.3-0.2 0.3-1.3-0.2-0.5 0.4-0.3 0.2-1.1-0.1-0.7 0.3-0.3 0.3-1.2 0.1-0.1v-0.1q-0.3-0.1-0.2-0.5l0.3-0.2q0.4 0.1 0.3 0.7l1.3 0.7 0.3-0.4 0.2-1.2v-0.7-0.1l0.2-0.2 0.2-0.7-0.4-0.2q-0.1 0.4-0.3 0.4-0.5-0.1-0.5-0.8-0.7-0.5-1.3-0.6 0 0.2-0.2 0.2h-0.1q-0.2-0.1-0.3-0.7l-1.4-0.7q-0.1 0.3-0.2 0.2-0.2 0-0.2-0.4zm-3.4 17.4l-0.1-0.2v-0.1l0.2-0.1 0.1 0.3-0.1 0.1zm0.4-2.1l-0.1-0.2v-0.1l0.2-0.1 0.1 0.3v0.1zm0.5-2.1l-0.2-0.2 0.2-0.1 0.1 0.2v0.1zm0.5-2.1l-0.1-0.2 0.1-0.1 0.2 0.2-0.1 0.1zm0.6-2l-0.2-0.3 0.2-0.1 0.1 0.2zm0.4-2.1l-0.1-0.2v-0.1l0.2-0.1 0.1 0.2v0.2zm0.5-2.1l-0.1-0.2 0.1-0.1 0.2 0.2-0.1 0.1zm0.5-2.1l-0.1-0.2 0.2-0.1 0.1 0.2-0.1 0.1zm-2.2 14.2v-0.2l0.2-0.1h0.1l0.2 0.3-0.1 0.1-0.1 0.2q-0.3-0.2-0.3-0.3zm0.7-1.9l-0.2-0.3v-0.1l0.2-0.1 0.2 0.2v0.2l-0.2 0.1zm0.5-2.1l-0.2-0.3v-0.1l0.2-0.1h0.2l0.1 0.2v0.2l-0.2 0.1zm0.4-2.1l-0.1-0.3v-0.1l0.2-0.1 0.2 0.3v0.1l-0.2 0.1zm0.6-2.1l-0.3-0.3v-0.1l0.2-0.1h0.1l0.2 0.3-0.1 0.1zm0.4-2.1l-0.1-0.3v-0.2l0.2-0.1h0.1l0.1 0.3v0.2l-0.2 0.1zm0.5-2.2l-0.2-0.2v-0.2l0.2-0.1q0.3 0.2 0.3 0.3l-0.1 0.1-0.1 0.2zm0.4-2.2l-0.1-0.2v-0.1l0.2-0.1h0.1l0.1 0.2v0.1l-0.2 0.1zm-2 14.4l-0.3-0.4 0.1-0.1 0.1-0.1h0.2l0.2 0.4v0.1l-0.2 0.1zm0.3-2.6q0-0.2 0.2-0.1 0.4 0.2 0.4 0.4l-0.1 0.1-0.3 0.2q-0.3-0.2-0.2-0.6zm0.5-2.2l0.1-0.1q0.5 0.1 0.4 0.6-0.1 0.2-0.3 0.2-0.3-0.2-0.2-0.7zm0.6-1.5l-0.2-0.4v-0.1l0.2-0.1h0.1l0.3 0.4-0.1 0.1-0.1 0.1zm0.4-2.1l-0.2-0.4v-0.1l0.2-0.1h0.2l0.2 0.4v0.1l-0.2 0.1zm0.3-2.6q0-0.2 0.2-0.1 0.3 0.2 0.3 0.4v0.1l-0.2 0.1h-0.2q-0.2-0.2-0.1-0.5zm0.4-2.2q0.1-0.1 0.3-0.1 0.3 0.2 0.3 0.6-0.1 0.2-0.3 0.2-0.4-0.2-0.3-0.7zm-1.4 12.8l-0.3-0.4 0.1-0.2 0.3-0.2q0.4 0.3 0.3 0.5v0.3l-0.2 0.1zm2.5-13.4l0.2-0.1 0.3 0.1 0.2 0.3-0.1 0.3-0.1 0.1-0.3-0.1q-0.2-0.2-0.2-0.6zm-1.6 12.5l0.1-0.4 0.2-0.1q0.6 0.1 0.5 0.7l-0.1 0.1q0 0.2-0.3 0.1-0.3-0.1-0.4-0.4zm2.4-10.6v-0.3l0.3-0.2q0.5 0.1 0.4 0.7v0.1q-0.1 0.2-0.4 0.1-0.3-0.1-0.3-0.4zm-1.7 11.9l0.1-0.2 0.2-0.1q0.7 0.3 0.6 0.9l-0.3 0.2-0.3-0.1q-0.3-0.3-0.3-0.7zm2.6-7.2l-0.7 3 1 0.5 0.8-3.5q-0.5 0.1-1.1 0zm-1.4 6.6q0.2-0.3 0.3-0.2h0.3q0.5 0.1 0.4 0.7l-0.5 0.3h-0.2q-0.3-0.1-0.3-0.8zm0.8 1.6v-0.1l0.3-0.2h0.2q0.4 0.1 0.4 0.4v0.3q-0.1 0.4-0.4 0.5l-0.3-0.1q-0.2-0.1-0.2-0.8zm1.2-0.7l0.4-0.2q0.8 0.3 0.6 1 0 0.2-0.5 0.3-0.6-0.1-0.5-1.1zm0.7 1.8l0.1-0.2 0.2-0.2 0.4 0.1q0.4 0.3 0.3 0.7v0.4l-0.2 0.1-0.2-0.1q-0.7-0.2-0.6-0.8zm1.2-0.7q0.2-0.3 0.4-0.3 0.9 0.2 0.8 0.9-0.1 0.3-0.6 0.5h-0.1q-0.7-0.3-0.5-1.1zm0.5-2.1q0-0.3 0.4-0.3 0.9 0.2 0.7 0.8v0.2q-0.3 0.4-0.7 0.3h-0.2q-0.2-0.1-0.2-1zm0.4-2.1q0.2-0.4 0.4-0.3h0.3q0.6 0.2 0.5 0.8-0.1 0.6-0.7 0.5l-0.2-0.1q-0.3 0-0.3-0.9zm0.5-2.1q0.2-0.4 0.4-0.4l0.1 0.1q0.6 0.1 0.7 0.6v0.2q-0.3 0.6-0.8 0.5-0.5-0.4-0.4-1zm0.5-2.2q0.2-0.3 0.4-0.3h0.1q0.5 0.1 0.7 0.7v0.1q-0.3 0.7-0.9 0.6-0.3-0.1-0.3-1.1zm-1.2 10.2q0.2-0.5 0.7-0.4 0.6 0.3 0.5 0.9-0.2 0.6-0.7 0.5-0.6-0.4-0.5-1zm0.5-2.2q0.3-0.4 0.6-0.3 0.4 0.1 0.6 0.7v0.2q-0.2 0.6-0.8 0.5-0.5-0.1-0.4-1.1zm0.5-1.9v-0.3l0.4-0.2h0.2q0.4 0.1 0.6 0.6v0.3q-0.2 0.6-0.8 0.5-0.5-0.2-0.4-0.9zm0.4-2.2l0.1-0.2 0.4-0.3 0.2 0.1q0.4 0.1 0.6 0.6l-0.1 0.5-0.5 0.3-0.4-0.1q-0.4-0.4-0.3-0.9zm0.5-2.1q0.1-0.6 0.7-0.4 0.6 0.2 0.5 0.8v0.1q-0.1 0.5-0.7 0.4l-0.2-0.1q-0.4-0.4-0.3-0.8zm0.5-2.3q0.2-0.4 0.6-0.3 0.7 0.3 0.6 0.9-0.2 0.7-0.8 0.5h-0.1q-0.4-0.4-0.3-1.1zm-1.2 10.1q0.2-0.4 0.3-0.4l0.4 0.1q0.6 0.1 0.6 1.1-0.2 0.3-0.5 0.4-1-0.4-0.8-1.2zm0.8 1.6v-0.2l0.4-0.2 0.4 0.1q0.5 0.4 0.4 0.9l-0.1 0.4-0.3 0.2-0.2-0.1q-0.8-0.1-0.6-1.1zm2 1.8v0.6l-0.1 0.2 0.7 0.3v-0.1-0.1q0.1-0.6 0.9-0.4l0.4 0.1v-0.4l0.2-0.3-0.6-0.2-0.1-0.1q-0.2 0.9-0.8 0.8-0.2 0-0.6-0.4zm2.5-4.8l0.7-3.1q-0.3 0-0.9-0.9l-0.8 3.4q0 0.1 1 0.6zm-0.8 2.7l-0.1 0.3 0.1-0.1h0.1l0.5 0.3q0.1-0.2-0.6-0.5zm0.7 1.8q0.5 0.1 0.6 0.3l0.2-0.7-0.5-0.2q-0.1 0.4-0.3 0.6zm2.6-11.3l-0.3 0.7 0.7 0.3 0.1-0.7q-0.4-0.1-0.5-0.3zm-2.9 12.8l-0.1 0.6 0.6 0.3 0.1-0.7q-0.4 0-0.6-0.2zm3.3-14.7l-0.1 0.5 0.6 0.3 0.1-0.5zm-2 14.1l-0.2 0.6 0.5 0.2 0.2-0.5zm0.3-1.6l0.1 0.2 0.4 0.1v-0.2l-0.5-0.2zm2.4-8.3l0.1-0.4-0.5-0.3-0.1 0.3q0 0.2 0.5 0.4zm0.1-2.8l-0.2 0.6 0.6 0.3q0.2-0.7-0.4-0.9zm-2.2 14.8v0.1l0.5 0.2v-0.1-0.1-0.1l0.1-0.2-0.5-0.2 0.1 0.1-0.1 0.2zm0.7-2.5l-0.2 0.5 0.5 0.2v-0.4h0.1zm0.5-2.2l-0.2 0.5 0.5 0.2v-0.2l0.1-0.2h-0.1zm0.5-2.1l-0.2 0.4 0.5 0.2v-0.2l0.1-0.2h-0.1l-0.3-0.2zm1-4.2l-0.2 0.4 0.5 0.3v-0.1-0.3l0.1-0.2h-0.1zm0.5-2.1l-0.2 0.4 0.5 0.3v-0.1-0.2l0.1-0.1v-0.1zm0.5-1.9l-0.2 0.2 0.5 0.3v-0.1-0.1l0.1-0.1v-0.1l-0.4-0.1zm-1.4 6.1l-0.1 0.5 0.4 0.2h0.1l-0.1-0.3 0.2-0.2h-0.1zm-0.7 7.9l-0.1 0.5 0.4 0.2 0.1-0.4q0-0.1-0.4-0.3zm0.5-2l-0.1 0.4 0.4 0.1 0.1-0.4zm0.4-2.1l-0.1 0.4 0.4 0.1 0.1-0.3zm0.5-2.2l-0.1 0.4 0.3 0.2 0.1-0.4zm0.5-2.2l-0.1 0.5 0.4 0.1v-0.2q0.1-0.2-0.3-0.4zm0.5-2l-0.1 0.4 0.3 0.1 0.1-0.4zm0.5-2.1l-0.1 0.4 0.4 0.2 0.1-0.4zm-2.1 14.5l0.1 0.2h0.1l0.1-0.2-0.3-0.2zm0.5-2.1l0.1 0.2h0.2v-0.2l-0.3-0.2zm0.5-2.2v0.3l0.2 0.1 0.1-0.3zm0.5-2.1l-0.1 0.2 0.3 0.1 0.1-0.3zm0.4-2l0.1 0.2 0.2 0.1v-0.2l-0.1-0.2h-0.1zm0.4-2.2l0.2 0.2 0.1 0.1 0.1-0.3-0.3-0.1zm0.5-2.2l-0.1 0.2 0.3 0.2 0.1-0.3zm0.4-2.2v0.2l0.3 0.2v-0.3zm-22.3-17.3v-0.6l3.6-16.5q0.3-1.1 3.5-2.2 2.3-1.2 3.3-1 7.5 3.5 7.3 4.2l0.6 0.9q0.6-0.4 1.4-0.2 10 5 10.7 5.6 1.3 1.5 1 2.9l-0.9 4.5q-0.4 1.4-2.2 1.2l-7.7-3.9-0.6 2.9q0 0.2 1.1 0.7v-0.1q0.7-1.2 1.8-1l0.4 0.1q0.7 0.2 4.8 2.5 1.5 1.6 1.2 2.9l-1.5 6.6q-0.6 1.5-1.9 1.2l-0.5-0.1-18.1-9.4q-4 2-4.8 1.8h-0.2q-1.8-0.4-2.3-3zm2.3 1.9l0.2 0.1q0.4 0 4.7-1.9l18.5 9.6q1.1 0 1.3-0.7l1.4-6.3q0.4-1.8-3.2-3.2-1.7-1-2.1-1.1-1-0.2-1.5 1.4h-0.1q-2.6-1.3-2.6-1.5l1.1-4.6 0.1-0.2 8.1 4.3q1.2 0.1 1.4-0.9l1-4.1q0.3-1.8-2.8-3-6.6-3.5-8-4.2h-0.2q-0.3-0.1-1.6 0.5-1-2.5-2.7-2.8-4.3-2.4-5-2.6h-0.1q-0.6 0-4.5 1.8-1.1 0.3-1.3 1.1l-3.5 16q0 2 1.4 2.3zm-0.1-1.4l-0.2-0.3 3.5-15.9q1.3-0.7 4.9-2.2h0.2q5.6 2.9 5.8 3.2l1.2 2.6 2.2-0.9q9.4 4.8 9.6 5.1l-0.9 4.1q0 0.2-0.3 0.1l-9.1-4.7-1.6 7.4 5.1 2.7 0.4-1.7q0-0.1 0.3-0.2l3.9 2.2-1.3 6.2-0.2 0.1-18.8-9.7h-0.1l-4.5 2zm3.9-15.9l-3.4 15.1h0.1l4.3-1.8 0.6 0.3-0.1-0.2 0.1-0.4 0.2-0.1q0.6 0.1 0.4 0.7v0.1q0 0.1-0.2 0.1v0.1l1.5 0.7v-0.6l0.3-0.2q0.7 0.1 0.6 0.8l-0.4 0.3v0.1l1.4 0.6v-0.5-0.1l0.3-0.2h0.1q0.8 0.3 0.6 0.9l-0.2 0.4 1.1 0.6v-0.6q0.2-0.3 0.4-0.3h0.1q0.6 0.1 0.7 0.6v0.2q-0.1 0.2-0.4 0.5l1.1 0.5v-0.1-0.3q0.1-0.4 0.5-0.4 0.8 0.1 0.8 1.1l-0.1 0.3 0.7 0.4 0.1-0.4q0.1-0.5 0.6-0.4l0.5 0.3 0.1 0.1v-0.6q0.2-0.3 0.5-0.4l0.2 0.1 0.4 0.2h0.1v-0.4l0.2-0.3q-0.6-0.1-0.9-0.5v0.7q-0.2 0.4-0.6 0.3-0.8-0.3-0.6-1l0.1-0.4 0.2-0.2 0.3 0.1 0.5 0.2q0-0.4-0.7-0.6-0.1 0.4-0.5 0.3-0.9-0.5-0.7-1.2v-0.4q-0.9-0.2-0.7-1.2 0.2-0.3 0.4-0.3h0.2l0.4 0.3 0.2-0.9-0.2-0.1q-0.6-0.1-0.6-1.1 0.3-0.4 0.4-0.4l0.2 0.1 0.5 0.2 0.2-0.7q0-0.1-0.7-0.5l-0.1-0.8q0.2-0.4 0.6-0.4l0.5 0.3 0.1-0.8q-0.9-0.4-0.7-1.3 0.2-0.3 0.3-0.3l0.4 0.1 0.3 0.2q0.3-0.9 0.5-0.8l0.3 0.1q0.7 0.1 0.7 1.2l0.6 0.2v-0.1l0.2-0.4q-1.1-0.2-0.9-1.1l0.1-0.3 0.3-0.2 0.3 0.1q0.2 0 0.5 0.4v-0.1-0.6q0.3-0.4 0.7-0.3l0.5 0.2v-0.1-0.3l0.1-0.1-0.7-0.3q-0.1 0.6-0.6 0.5l-0.1-0.1q-0.7-0.1-0.7-1.1 0.1-0.1-0.6-0.3-0.1 0.4-0.5 0.5h-0.2l-0.3-0.2q-0.2-0.1-0.5 0.6-1-0.1-1 0.1-0.3 0.3-0.6 0.4h-0.1q-0.7-0.2-0.5-1.1 0.2-0.3 0.6-0.2l0.1 0.1h0.1v-0.1l-0.4-0.9h-0.1q-0.1 0.7-0.5 0.6h-0.1q-0.5-0.3-0.4-0.9v-0.2q0.1-0.2 0.7-0.1l-0.4-0.8h-0.1l0.1 0.1-0.3 0.3h-0.1q-0.9-0.3-0.7-1l-1-0.4q-0.1 0.3-0.4 0.3-0.5-0.1-0.6-0.9l-1-0.5q-0.1 0.3-0.4 0.3-0.4-0.1-0.4-0.8l-0.5-0.2zm-2.6 13.6l-0.1-0.2v-0.1l0.2-0.1 0.2 0.3-0.2 0.1zm0.5-2.1l-0.1-0.2v-0.1l0.2-0.1 0.1 0.2-0.1 0.2zm0.5-2.1l-0.1-0.2 0.2-0.1 0.1 0.1v0.2zm0.4-2.1l-0.1-0.2 0.2-0.2 0.2 0.3-0.1 0.1zm0.5-2.1l-0.2-0.2 0.2-0.2 0.2 0.3zm0.4-2.1l-0.1-0.2v-0.1l0.2-0.1 0.1 0.2v0.2zm0.4-2.1l-0.1-0.2 0.2-0.1 0.1 0.2v0.1zm-1.8 12v-0.1l0.2-0.2 0.1 0.1 0.2 0.2-0.1 0.2-0.1 0.1q-0.3-0.2-0.3-0.3zm0.7-1.8l-0.2-0.3v-0.2l0.2-0.1 0.3 0.3-0.1 0.2-0.2 0.1zm0.5-2.2l-0.2-0.2v-0.1l0.2-0.1h0.2l0.1 0.2v0.1l-0.2 0.2zm0.5-2.2l-0.2-0.3 0.2-0.2 0.1 0.1 0.1 0.2v0.1l-0.2 0.1zm0.6-2l-0.3-0.4v-0.1l0.2-0.1h0.1l0.2 0.3-0.1 0.2zm0.4-2.2l-0.1-0.3v-0.1l0.2-0.1h0.1l0.1 0.3v0.1l-0.2 0.1zm0.5-2.1l-0.2-0.3v-0.1l0.2-0.1q0.3 0.1 0.3 0.2v0.2l-0.2 0.1zm-1.6 12.2l-0.3-0.3 0.1-0.2 0.2-0.1h0.1l0.3 0.4-0.1 0.1-0.2 0.2zm0.3-2.7q0-0.1 0.3-0.1 0.3 0.2 0.3 0.4v0.1l-0.3 0.2q-0.4-0.2-0.3-0.6zm0.5-2.1l0.2-0.2q0.4 0.2 0.3 0.7 0 0.1-0.3 0.1-0.3-0.2-0.2-0.6zm0.6-1.6l-0.2-0.3v-0.2l0.2-0.1h0.2l0.2 0.4v0.1l-0.2 0.2zm0.5-2.2l-0.3-0.3 0.1-0.2 0.1-0.1h0.2l0.2 0.4v0.1l-0.2 0.2zm0.3-2.7q0-0.1 0.2-0.1 0.4 0.2 0.4 0.4l-0.1 0.1-0.2 0.2-0.2-0.1q-0.2-0.1-0.1-0.5zm0.5-2.1q0-0.2 0.2-0.1 0.4 0.2 0.3 0.6-0.1 0.1-0.3 0.1-0.3-0.2-0.2-0.6zm-1.4 12.8l-0.3-0.5v-0.1l0.3-0.2q0.4 0.2 0.4 0.4l-0.1 0.3-0.2 0.1zm0.2-2.7q0.1-0.2 0.3-0.1l0.3-1.5q-0.2-0.3-0.1-0.6l0.3-0.2 0.3-1.3-0.2-0.5 0.3-0.3 0.3-1.1-0.1-0.7 0.3-0.3 0.3-1.2 0.1-0.1v-0.1q-0.3 0-0.2-0.5l0.3-0.2q0.4 0.1 0.3 0.7l1.3 0.7q0.1-0.5 0.4-0.5 0.3 0.2 0.6 1.1l0.9 0.4q0.1-0.5 0.4-0.5h0.1q0.5 0.2 0.5 1l1 0.5v-0.1q0.1-0.4 0.3-0.4l0.4 0.1q0.4 0.4 0.3 0.8v0.2q-0.2 0.3-0.6 0.2l-0.2 0.9q0.4 0.4 0.4 0.7l-0.1 0.3q-0.2 0.3-0.5 0.2l-0.2 1q0.3 0 0.3 0.7l-0.1 0.3q0 0.2-0.5 0.1l-0.2 1q0.3 0.1 0.3 0.7l-0.1 0.3q0 0.2-0.5 0.1l-0.2 1 0.4 0.5-0.1 0.4q-0.2 0.3-0.6 0.2-0.3-0.1-0.5-0.7l-0.9-0.4-0.3 0.1-0.1-0.1q-0.4 0-0.6-0.6l-1-0.5h-0.5q-0.5-0.6-1.5-1.1h-0.5q-0.4-0.2-0.3-0.6zm2.4-10.6l0.2-0.2 0.3 0.1 0.1 0.3v0.3l-0.2 0.1h-0.2q-0.3-0.2-0.2-0.6zm0 3.3l-1.6 7.4 5.2 2.6 1.6-7.4zm-1.7 9.2l0.1-0.4 0.2-0.1q0.6 0.1 0.5 0.7l-0.1 0.1q0 0.2-0.3 0.1-0.3-0.1-0.4-0.4zm2.4-10.6v-0.3l0.3-0.2q0.5 0.1 0.4 0.7v0.1q-0.1 0.2-0.4 0.1-0.3-0.1-0.3-0.4zm-1.6 11.9v-0.2l0.2-0.1q0.7 0.3 0.6 0.9l-0.3 0.2-0.3-0.1q-0.3-0.3-0.2-0.7zm0.8-3.9l1-4.5 0.1-0.1v-0.1q2.7 1.3 2.7 1.6l-1.1 4.5-0.1 0.1v0.1q-2.6-1.3-2.6-1.6zm2-8.8v-0.2l0.3-0.1q0.4 0.2 0.5 0.7v0.2l-0.2 0.2-0.5-0.1q-0.2-0.1-0.1-0.7zm-0.3 5.5l-0.7 3 1 0.5 0.7-3zm-1.4 6.6q0.2-0.2 0.3-0.2h0.3q0.5 0.2 0.4 0.7v0.1l-0.5 0.3-0.2-0.1q-0.3 0-0.3-0.8zm2.4-10.6q0.2-0.2 0.3-0.2h0.1q0.4 0.1 0.5 0.5v0.3l-0.5 0.3-0.2-0.1q-0.2 0-0.2-0.8zm-1.6 12.3v-0.2l0.3-0.2 0.2 0.1q0.4 0 0.4 0.4v0.3q-0.1 0.4-0.4 0.4l-0.3-0.1q-0.2 0-0.2-0.7zm2.8-12.7v-0.2l0.3-0.2h0.2q0.5 0.1 0.4 0.7l-0.1 0.3q-0.2 0.2-0.4 0.2-0.5-0.3-0.4-0.8zm-1.6 12l0.4-0.3q0.8 0.4 0.6 1 0 0.3-0.5 0.3-0.6-0.1-0.5-1zm2.3-10.6l0.3-0.2h0.2q0.6 0.2 0.6 0.9-0.1 0.3-0.5 0.3-0.7-0.1-0.6-1zm-1.6 12.3l0.1-0.2 0.2-0.2 0.4 0.1q0.4 0.4 0.3 0.8v0.3l-0.2 0.1h-0.2q-0.7-0.3-0.6-0.9zm1.2-0.7q0.2-0.3 0.4-0.3 0.9 0.2 0.8 0.9-0.1 0.3-0.6 0.5h-0.1q-0.7-0.3-0.5-1.1zm0.5-2.1q0-0.2 0.4-0.3 0.9 0.3 0.7 0.9v0.1q-0.3 0.4-0.7 0.3h-0.2q-0.2 0-0.2-1zm0.4-2.1q0.2-0.3 0.4-0.3l0.3 0.1q0.6 0.1 0.5 0.7-0.1 0.6-0.7 0.5h-0.2q-0.3-0.1-0.3-1zm0.5-2.1q0.2-0.3 0.4-0.3h0.1q0.6 0.1 0.7 0.6v0.2q-0.3 0.7-0.8 0.5-0.5-0.4-0.4-1zm0.5-2.1q0.2-0.3 0.4-0.4l0.1 0.1q0.5 0.1 0.7 0.6v0.2q-0.3 0.6-0.9 0.5-0.3-0.1-0.3-1zm-1.2 10.2q0.2-0.5 0.7-0.4 0.7 0.3 0.5 0.8v0.1q-0.2 0.6-0.7 0.5-0.6-0.5-0.5-1zm0.5-2.3q0.2-0.4 0.7-0.3 0.3 0.1 0.5 0.7v0.3q-0.2 0.6-0.8 0.4-0.5-0.1-0.4-1.1zm0.5-1.9v-0.2l0.4-0.3 0.2 0.1q0.4 0.1 0.6 0.6v0.2q-0.2 0.6-0.8 0.5-0.5-0.1-0.4-0.9zm0.4-2.1l0.1-0.3 0.4-0.2h0.2q0.4 0.1 0.6 0.7l-0.1 0.4-0.5 0.3-0.4-0.1q-0.4-0.4-0.3-0.8zm0.5-2.2q0.1-0.5 0.7-0.4 0.6 0.3 0.5 0.8v0.3l-0.5 0.3-0.4-0.1q-0.4-0.4-0.3-0.9zm0.5-2.3q0.2-0.3 0.6-0.2 0.7 0.3 0.6 0.8v0.1q-0.2 0.6-0.8 0.5l-0.1-0.1q-0.4-0.4-0.3-1.1zm-1.2 10.1q0.2-0.4 0.3-0.3h0.4q0.6 0.2 0.6 1.1-0.2 0.3-0.5 0.4-1-0.3-0.8-1.2zm2.4-10.6q0.2-0.3 0.4-0.3h0.2q0.6 0.2 0.6 1.1-0.1 0.5-0.6 0.4-0.7-0.2-0.6-1.2zm-1.6 12.2v-0.2l0.4-0.2 0.4 0.1q0.5 0.5 0.4 1l-0.1 0.4-0.3 0.1h-0.2q-0.8-0.2-0.6-1.2zm2.8-12.6l0.1-0.3 0.3-0.2h0.2q0.6 0.1 0.6 1l-0.1 0.4-0.2 0.2-0.3-0.1q-0.6-0.1-0.6-1zm-0.8 14.5v0.5l-0.1 0.3 0.7 0.3 0.1-0.4 0.2-0.4-0.3 0.1q-0.2-0.1-0.6-0.5zm2.8-12.1l-0.1 0.2 0.2 0.1 0.5 0.2h0.1l-0.1-0.3 0.3-0.4q-0.6-0.1-0.8-0.4zm1.2-0.5l-0.2 0.2 0.4-0.1 0.4 0.4 0.3-0.8-0.3-0.1-0.5-0.3v0.1zm-2.6 12.2l-0.3 0.7h0.3q0.2 0.1 0.4 0.4h0.1v-0.1-0.4l0.2-0.3-0.6-0.2-0.1-0.1zm0.4-1.6l-0.1 0.3v-0.1h0.2l0.5 0.3q0-0.2-0.6-0.5zm2-9l-0.1 0.5 0.5 0.3 0.3-0.5zm-1.6 12.2l-0.2 0.6 0.7 0.3 0.1-0.6q-0.4-0.1-0.6-0.3zm0.3-1.5q0.5 0.1 0.6 0.3l0.2-0.7-0.5-0.1q-0.1 0.3-0.3 0.5zm2.3-10.6q0.5 0.1 0.7 0.3l0.1-0.7h-0.4v-0.1h-0.1q-0.1 0.3-0.3 0.5zm0.7-2.5l-0.1 0.4q0.4 0.1 0.6 0.3l0.1-0.5zm-2 14.2l-0.2 0.6 0.5 0.2 0.2-0.6zm0.3-1.6l0.1 0.2 0.4 0.1v-0.2l-0.5-0.1zm2.4-8.4l0.1-0.4-0.5-0.3-0.1 0.4q0 0.1 0.5 0.3zm0.1-2.7l-0.2 0.5 0.6 0.3q0.2-0.7-0.4-0.8zm-2.2 14.7v0.1l0.5 0.3v-0.2-0.1-0.1l0.1-0.2-0.5-0.2 0.1 0.1-0.1 0.3zm0.7-2.5l-0.2 0.4 0.5 0.3v-0.4l0.1-0.1zm0.5-2.1l-0.2 0.4 0.5 0.3v-0.3l0.1-0.2h-0.1zm1.9-8.5l-0.2 0.5 0.5 0.3-0.1-0.1 0.1-0.3h0.1v-0.1zm0.4-1.9l-0.1 0.2 0.5 0.3-0.1-0.1 0.1-0.2h0.1v-0.1l-0.5-0.2zm-2 14.1l-0.1 0.5 0.4 0.2 0.1-0.3q0-0.2-0.4-0.4zm0.5-2l-0.1 0.4 0.4 0.1 0.1-0.4zm1.8-8.4v0.2l0.3 0.2 0.1-0.3zm0.5-2.1l-0.1 0.4 0.3 0.1 0.1-0.3zm-2.1 14.5l0.2 0.1 0.1 0.1 0.1-0.3-0.3-0.1zm0.4-2.1l0.2 0.2h0.1l0.1-0.2-0.3-0.2zm0.5-2.2l-0.1 0.2 0.3 0.2 0.1-0.3zm1.8-8.5v0.2l0.3 0.2 0.1-0.3zm0.4-2.2v0.3l0.3 0.1v-0.3z"/>
</svg>